<mxfile host="app.diagrams.net" agent="Mozilla/5.0 (Macintosh; Intel Mac OS X 10_15_7) AppleWebKit/537.36 (KHTML, like Gecko) Chrome/134.0.0.0 Safari/537.36" version="26.1.1">
  <diagram name="Page-1" id="dlo2XOUuKXdntDvZxQMs">
    <mxGraphModel dx="1304" dy="714" grid="1" gridSize="10" guides="1" tooltips="1" connect="1" arrows="1" fold="1" page="1" pageScale="1" pageWidth="850" pageHeight="1400" background="#ffffff" math="0" shadow="1">
      <root>
        <mxCell id="0" />
        <mxCell id="1" parent="0" />
        <mxCell id="wdwd_AqZ2ZVo4Lx0RvvQ-32" value="" style="edgeStyle=orthogonalEdgeStyle;rounded=0;orthogonalLoop=1;jettySize=auto;html=1;" parent="1" source="wdwd_AqZ2ZVo4Lx0RvvQ-29" target="wdwd_AqZ2ZVo4Lx0RvvQ-31" edge="1">
          <mxGeometry relative="1" as="geometry" />
        </mxCell>
        <mxCell id="wdwd_AqZ2ZVo4Lx0RvvQ-29" value="Quick Disconnect" style="rounded=1;whiteSpace=wrap;html=1;rotation=90;" parent="1" vertex="1">
          <mxGeometry x="-60" y="375" width="220" height="60" as="geometry" />
        </mxCell>
        <mxCell id="wdwd_AqZ2ZVo4Lx0RvvQ-30" value="CKNP-A" style="shape=image;verticalLabelPosition=bottom;verticalAlign=top;imageAspect=0;aspect=fixed;image=data:image/svg+xml,PHN2ZyB4bWxuczp4bGluaz0iaHR0cDovL3d3dy53My5vcmcvMTk5OS94bGluayIgeG1sbnM9Imh0dHA6Ly93d3cudzMub3JnLzIwMDAvc3ZnIiBvdmVyZmxvdz0iaGlkZGVuIiB4bWw6c3BhY2U9InByZXNlcnZlIiBoZWlnaHQ9IjQ0IiB3aWR0aD0iODQiIHZpZXdCb3g9IjAgMCA4NCA0NCI+PGRlZnM+PGNsaXBQYXRoIGlkPSJjbGlwMCI+PHJlY3QgaGVpZ2h0PSI0NCIgd2lkdGg9Ijg0IiB5PSI2MzYiIHg9IjY2OCIvPjwvY2xpcFBhdGg+PGNsaXBQYXRoIGlkPSJjbGlwMSI+PHJlY3QgaGVpZ2h0PSI0NCIgd2lkdGg9Ijg0IiB5PSI2MzYiIHg9IjY2OCIvPjwvY2xpcFBhdGg+PGNsaXBQYXRoIGlkPSJjbGlwMiI+PHJlY3QgaGVpZ2h0PSIyNzMwNTAiIHdpZHRoPSI1MjcwNTAiIHk9IjAiIHg9IjAiLz48L2NsaXBQYXRoPjxpbWFnZSBpZD0iaW1nMyIgcHJlc2VydmVBc3BlY3RSYXRpbz0ibm9uZSIgeGxpbms6aHJlZj0iZGF0YTppbWFnZS9wbmc7YmFzZTY0LGlWQk9SdzBLR2dvQUFBQU5TVWhFVWdBQUFQUUFBQUNrQ0FZQUFBQ2dvUU1KQUFBQUFYTlNSMElBcnM0YzZRQUFBSVJsV0VsbVRVMEFLZ0FBQUFnQUJRRVNBQU1BQUFBQkFBRUFBQUVhQUFVQUFBQUJBQUFBU2dFYkFBVUFBQUFCQUFBQVVnRW9BQU1BQUFBQkFBSUFBSWRwQUFRQUFBQUJBQUFBV2dBQUFBQUFBQUJJQUFBQUFRQUFBRWdBQUFBQkFBT2dBUUFEQUFBQUFRQUJBQUNnQWdBRUFBQUFBUUFBQVBTZ0F3QUVBQUFBQVFBQUFLUUFBQUFBbUVrSkRBQUFBQWx3U0ZsekFBQUxFd0FBQ3hNQkFKcWNHQUFBQnhWSlJFRlVlQUh0M1FGUzJ6Z1lCbERZMlh2Um5xenR5ZHFlakpWM2NHc3BDckV0V1piaTV4bkd5TmlTZVBxL0JFSVNYbDVzQkFnUUlFQ0FBQUVDQkFnUUlFQ0FBQUVDQkFnUUlFQ0FBQUVDQkFnUUlFQ0FBQUVDQkFnUUlFQ0FBQUVDQkFnUUlFQ0FBQUVDQkFnUUlFQ0FBQUVDQkFnUUlFQ0FBQUVDQkFnUUlFQ0FBQUVDQkFnUUlFQ0FBQUVDQkFnUUlFQ0FBQUVDQkFnUUlFQ0FBQUVDQkFnUUlFQ0FBQUVDQkFnUUlFQ0FBQUVDQkFnUUlFQ0FBQUVDQkFnUUlFQ0FBQUVDQkFnUUlFQ0FBQUVDQkFnUUlFQ0FBQUVDQkFnUUlFQ0F3RmtDcjJjTnZHSGM5dzNuT3BYQTBRSmRaK2Fmbzc5Ny9STWcwRTVBb050Wkc0bkE0UUlDZlRpeEFRaTBFL2kzM1ZCMVJucC85eXQxSFVtOXJCRjRmZTM2VithYmI4RTk5QTJKQXdUR0ZSRG9jZGZPekFuY0NBajBEWWtEQk1ZVkVPaHgxNjc2ekgvOStsVzlUeDIyRlJEb3R0NWRqL2I3OSsrWDZVR2dIejkrZEQxUGs3c3ZJTkQzYlM3N2xlL2Z2d3Yyb0tzdjBJTXVYSXRwQzNZTDVicGpDSFJkejZmc1RiREhXVmFCSG1ldFRwK3BZSisrQkE4bklOQVBpWnlRQ2doMkt0SlBXNkQ3V1l2aFppTFkvUzJaUVBlM0pzUE5TTEQ3V1RLQjdtY3RocCtKWUorL2hBSjkvaG84M1F3RSs3d2xGZWp6N0o5KzVDbllYNzkrOWN5emhpczkzT3VoRzlvWXFvTEE5UHp3NVhQRXYzMzdWcUZYWGR3VEVPaDdNbzVYRlpqdXJaZWJZQzgxNm4wdTBQVXM5YlJDUUxCWElCV2NJdEFGZUM3ZEx5RFkrKzArdTFLZ1A5UHh0Y01GQkxzdXNVRFg5ZFRiVG9GbHNOL2UzbDYrZlBteXM2ZHJYK2JQVnRkZS8rNisreW5ZL3RTMWYxa0VlcitkS3c4VW1JTHQzVk8yQTQvd3BzUFJHM0gzK0w3Y3k3K3pibCtDZnE2WTNvSm8rYU52UHpONytYOWVaL3lwSy9PKzNDTmtwcWVsdTVuTEZPZy9IeUhRMlcxNWpzLy9lajJiUmJqQnlhNy9VUWN6ZnVHUXJVVGdUNWhESjNmWGJmcWFqK3NZdEFwMnBxYkNJVnVKUUJUVWU0a09BMFRuYVYvRDQraGdaK3FvcEpaZG00SUs5RFdDbXE3N28vWlJ3YzZNR3c3WlNnU2llMTZCRnVoUVRGRk5MTnUxZzczcysrUHpzTE9WQ0VTTEo5RDNpemtnUjFaWGJ0Y0tkc2F3cEpaZG00SUt0TkNtTmZGWnV6VFltYjdESVZ1SlFIU3ZJOUFDSFlvcHFvazE3YjNCenZSZFVzdXVUVUVGZW5zeHA0WlhibThOZHNZcUhMS1ZDRVMzeGdJdDBLR1lvcHJZMDE0YjdFemZKYlhzMmhSVW9NdUxPVFc5Y3Z0UnNETTI0WkN0UkNDNk5SWm9nUTdGRk5WRWpmYTlZR2Y2THFsbDE2YWdBbDIvbUZQaks3ZC8vdndabFZqR0loenFkL1B5eVg3WHhzd2FDb1I3Nk9tRkF0NVlvWUY1OU9OVmRQTzVhSVI1Uk9kcDgxaFRBL2QrMUo1TEs5TkhPR1FyRVlpQ09rT24rekJBZEo0Mmo4OXFJTHpGMFh2NjQzVmFVMU03MDBjNFpDc1JpRkJ6NkhmZ28rdkNCTFFadks4TjhseG5tYm9wcVdYWHBxQXpkTHBQejlOMkE3YXNnYTFCbnV0cjJjZkg1MkZuS3hHSTdsbG42SFFmQm9qTzArWXgxY0RlSU0vMWxhbWpjTWhXSWhBRmRZWk85MkdBNkR6dGEzdVVCbm11cjB3ZGxkU3lhMVBRR1RyZHArZHBYelBRdFlJODExZW1qc0loVzRsQWRNODdRNmY3TUVCMG52YTFQR29IZWE2dlRCMlYxTEpyVTlBWk90Mm41MmxmSTlCSEJYbXVyMHdkaFVPMkVvSG9ubmVHVHZkaGdPZzg3ZWYyT0RySWMzMWw2cWlrbGwyYmdzN1E2VDQ5VC9zNUE5MHF5SE45WmVvb0hPcDM4OC9xT2x1YlVMQ256YWpuL3dBeXVVei9PZU5NbjlNVzVza0dqbjZVbm04NTdlc0xUTTlyRHJYVDNjZWo1MXZYbC9qYlk4YWo2M2k1aCs1NmVhNDl1ZWtWVUdmOFA2dVIxUVY2NU5WNzBya0w4djZGRmVqOWRxNnNMQ0RJNWFBQ1hXNm9oMElCRDNnVkFpNHVGK2dGaGsvYkNnaHlmVytCcm0rcXh3Y0NndndBcU9ETEFsMkE1OUp0QW9LOHpXdlAyUUs5UjgwMW13UUVlUk5YMGNrQ1hjVG40czhFQlBrem5XTytKdERIdUY2NlYwRStiL2tGK2p6N3B4dFprTTlmVW9FK2Z3MkduNEVnOTdPRUF0M1BXcHcrazdlM3QwMXpFT1JOWEUxT0Z1Z216TTgzU0hpVCtwY3AwTGErQlB4dnE3N1dvL3ZaVE0rM0RpOHVGT1pPVjhvOWRLY0wwOXUwdkhDaXR4WEp6MGVnOHk2T2ZnZ0k4bGlsSU5CanJWZXoyUXB5TStxcUF3bDBWYzd4Ty9QSTlkaHIrRHJBOUtmM3VQcXpUUS9JMkFpMEVuaDl2WW5JellGV2Mxa3pqa2U1MXlnNWg4QWdBZ0k5eUVLWkpvRTFBZ0s5UnNrNUJBWVJFT2hCRnNvMENhd1I2UG9YL0k5dndLTmdhMWJTT2EwRXVzNk1lK2hXWldBY0FnMEVCTG9Cc2lFSXRCSVE2RmJTeGlGQWdBQUJBZ1FJRUNCQWdBQUJBZ1FJRUNCQWdBQUJBZ1FJRUNCQWdBQUJBZ1FJRUNCQWdBQUJBZ1FJRUNCQWdBQUJBZ1FJRUNCQWdBQUJBZ1FJRUNCQWdBQUJBZ1FJRUNCQWdBQUJBZ1FJRUNCQWdBQUJBZ1FJRUNCQWdBQUJBZ1FJRUNCQWdBQUJBZ1FJRUNCQWdBQUJBZ1FJRUNCQWdBQUJBZ1FJRUNCQWdBQUJBZ1FJRUNCQWdBQUJBZ1FJRUNCQWdBQUJBZ1FJRUNCQWdBQUJBZ1FJRUNCQWdBQUJBZ1FJRUhocWdmOEFNRDh0L0k3NzBDUUFBQUFBU1VWT1JLNUNZSUk9IiBoZWlnaHQ9IjE2NCIgd2lkdGg9IjI0NCIvPjxjbGlwUGF0aCBpZD0iY2xpcDQiPjxwYXRoIGNsaXAtcnVsZT0iZXZlbm9kZCIgZmlsbC1ydWxlPSJldmVub2RkIiBkPSJNMTI1Nzg1IDEyNDIwMCA2NTI4MzUgMTI0MjAwIDY1MjgzNSAzOTQ4ODQgMTI1Nzg1IDM5NDg4NFoiLz48L2NsaXBQYXRoPjwvZGVmcz48ZyB0cmFuc2Zvcm09InRyYW5zbGF0ZSgtNjY4IC02MzYpIiBjbGlwLXBhdGg9InVybCgjY2xpcDApIj48ZyBjbGlwLXBhdGg9InVybCgjY2xpcDEpIj48ZyB0cmFuc2Zvcm09Im1hdHJpeCgwLjAwMDE1NzQ4IDAgMCAwLjAwMDE1NzQ4IDY2OCA2MzYpIiBjbGlwLXBhdGg9InVybCgjY2xpcDIpIj48ZyB0cmFuc2Zvcm09Im1hdHJpeCgxIDAgMCAxLjAwODc0IC0xMjU3ODUgLTEyNTI4NSkiIGNsaXAtcGF0aD0idXJsKCNjbGlwNCkiPjx1c2UgdHJhbnNmb3JtPSJzY2FsZSgzMTg0LjU0IDMxODQuNTQpIiBvcGFjaXR5PSIxIiB4bGluazpocmVmPSIjaW1nMyIgaGVpZ2h0PSIxMDAlIiB3aWR0aD0iMTAwJSIvPjwvZz48L2c+PC9nPjwvZz48L3N2Zz4=;clipPath=inset(0% 2.38% 4.55% 0%);points=[[0,0.5,0,0,0],[1,0.5,0,0,0]];" parent="1" vertex="1">
          <mxGeometry x="111" y="395.0000000000001" width="40.09" height="20.53390243902439" as="geometry" />
        </mxCell>
        <mxCell id="wdwd_AqZ2ZVo4Lx0RvvQ-41" value="" style="edgeStyle=orthogonalEdgeStyle;rounded=0;orthogonalLoop=1;jettySize=auto;html=1;" parent="1" source="wdwd_AqZ2ZVo4Lx0RvvQ-31" edge="1">
          <mxGeometry relative="1" as="geometry">
            <mxPoint x="260" y="405" as="targetPoint" />
          </mxGeometry>
        </mxCell>
        <mxCell id="wdwd_AqZ2ZVo4Lx0RvvQ-31" value="CKNP-B&#xa;" style="shape=image;verticalLabelPosition=bottom;verticalAlign=top;imageAspect=0;aspect=fixed;image=data:image/svg+xml,PHN2ZyB4bWxuczp4bGluaz0iaHR0cDovL3d3dy53My5vcmcvMTk5OS94bGluayIgeG1sbnM9Imh0dHA6Ly93d3cudzMub3JnLzIwMDAvc3ZnIiBvdmVyZmxvdz0iaGlkZGVuIiB4bWw6c3BhY2U9InByZXNlcnZlIiBoZWlnaHQ9IjQ0IiB3aWR0aD0iODQiIHZpZXdCb3g9IjAgMCA4NCA0NCI+PGRlZnM+PGNsaXBQYXRoIGlkPSJjbGlwMCI+PHJlY3QgaGVpZ2h0PSI0NCIgd2lkdGg9Ijg0IiB5PSI2MzYiIHg9IjY2OCIvPjwvY2xpcFBhdGg+PGNsaXBQYXRoIGlkPSJjbGlwMSI+PHJlY3QgaGVpZ2h0PSI0NCIgd2lkdGg9Ijg0IiB5PSI2MzYiIHg9IjY2OCIvPjwvY2xpcFBhdGg+PGNsaXBQYXRoIGlkPSJjbGlwMiI+PHJlY3QgaGVpZ2h0PSIyNzMwNTAiIHdpZHRoPSI1MjcwNTAiIHk9IjAiIHg9IjAiLz48L2NsaXBQYXRoPjxpbWFnZSBpZD0iaW1nMyIgcHJlc2VydmVBc3BlY3RSYXRpbz0ibm9uZSIgeGxpbms6aHJlZj0iZGF0YTppbWFnZS9wbmc7YmFzZTY0LGlWQk9SdzBLR2dvQUFBQU5TVWhFVWdBQUFQUUFBQUNrQ0FZQUFBQ2dvUU1KQUFBQUFYTlNSMElBcnM0YzZRQUFBSVJsV0VsbVRVMEFLZ0FBQUFnQUJRRVNBQU1BQUFBQkFBRUFBQUVhQUFVQUFBQUJBQUFBU2dFYkFBVUFBQUFCQUFBQVVnRW9BQU1BQUFBQkFBSUFBSWRwQUFRQUFBQUJBQUFBV2dBQUFBQUFBQUJJQUFBQUFRQUFBRWdBQUFBQkFBT2dBUUFEQUFBQUFRQUJBQUNnQWdBRUFBQUFBUUFBQVBTZ0F3QUVBQUFBQVFBQUFLUUFBQUFBbUVrSkRBQUFBQWx3U0ZsekFBQUxFd0FBQ3hNQkFKcWNHQUFBQnhWSlJFRlVlQUh0M1FGUzJ6Z1lCbERZMlh2Um5xenR5ZHFlakpWM2NHc3BDckV0V1piaTV4bkd5TmlTZVBxL0JFSVNYbDVzQkFnUUlFQ0FBQUVDQkFnUUlFQ0FBQUVDQkFnUUlFQ0FBQUVDQkFnUUlFQ0FBQUVDQkFnUUlFQ0FBQUVDQkFnUUlFQ0FBQUVDQkFnUUlFQ0FBQUVDQkFnUUlFQ0FBQUVDQkFnUUlFQ0FBQUVDQkFnUUlFQ0FBQUVDQkFnUUlFQ0FBQUVDQkFnUUlFQ0FBQUVDQkFnUUlFQ0FBQUVDQkFnUUlFQ0FBQUVDQkFnUUlFQ0FBQUVDQkFnUUlFQ0FBQUVDQkFnUUlFQ0FBQUVDQkFnUUlFQ0FBQUVDQkFnUUlFQ0F3RmtDcjJjTnZHSGM5dzNuT3BYQTBRSmRaK2Fmbzc5Ny9STWcwRTVBb050Wkc0bkE0UUlDZlRpeEFRaTBFL2kzM1ZCMVJucC85eXQxSFVtOXJCRjRmZTM2VithYmI4RTk5QTJKQXdUR0ZSRG9jZGZPekFuY0NBajBEWWtEQk1ZVkVPaHgxNjc2ekgvOStsVzlUeDIyRlJEb3R0NWRqL2I3OSsrWDZVR2dIejkrZEQxUGs3c3ZJTkQzYlM3N2xlL2Z2d3Yyb0tzdjBJTXVYSXRwQzNZTDVicGpDSFJkejZmc1RiREhXVmFCSG1ldFRwK3BZSisrQkE4bklOQVBpWnlRQ2doMkt0SlBXNkQ3V1l2aFppTFkvUzJaUVBlM0pzUE5TTEQ3V1RLQjdtY3RocCtKWUorL2hBSjkvaG84M1F3RSs3d2xGZWp6N0o5KzVDbllYNzkrOWN5emhpczkzT3VoRzlvWXFvTEE5UHp3NVhQRXYzMzdWcUZYWGR3VEVPaDdNbzVYRlpqdXJaZWJZQzgxNm4wdTBQVXM5YlJDUUxCWElCV2NJdEFGZUM3ZEx5RFkrKzArdTFLZ1A5UHh0Y01GQkxzdXNVRFg5ZFRiVG9GbHNOL2UzbDYrZlBteXM2ZHJYK2JQVnRkZS8rNisreW5ZL3RTMWYxa0VlcitkS3c4VW1JTHQzVk8yQTQvd3BzUFJHM0gzK0w3Y3k3K3pibCtDZnE2WTNvSm8rYU52UHpONytYOWVaL3lwSy9PKzNDTmtwcWVsdTVuTEZPZy9IeUhRMlcxNWpzLy9lajJiUmJqQnlhNy9VUWN6ZnVHUXJVVGdUNWhESjNmWGJmcWFqK3NZdEFwMnBxYkNJVnVKUUJUVWU0a09BMFRuYVYvRDQraGdaK3FvcEpaZG00SUs5RFdDbXE3N28vWlJ3YzZNR3c3WlNnU2llMTZCRnVoUVRGRk5MTnUxZzczcysrUHpzTE9WQ0VTTEo5RDNpemtnUjFaWGJ0Y0tkc2F3cEpaZG00SUt0TkNtTmZGWnV6VFltYjdESVZ1SlFIU3ZJOUFDSFlvcHFvazE3YjNCenZSZFVzdXVUVUVGZW5zeHA0WlhibThOZHNZcUhMS1ZDRVMzeGdJdDBLR1lvcHJZMDE0YjdFemZKYlhzMmhSVW9NdUxPVFc5Y3Z0UnNETTI0WkN0UkNDNk5SWm9nUTdGRk5WRWpmYTlZR2Y2THFsbDE2YWdBbDIvbUZQaks3ZC8vdndabFZqR0loenFkL1B5eVg3WHhzd2FDb1I3Nk9tRkF0NVlvWUY1OU9OVmRQTzVhSVI1Uk9kcDgxaFRBL2QrMUo1TEs5TkhPR1FyRVlpQ09rT24rekJBZEo0Mmo4OXFJTHpGMFh2NjQzVmFVMU03MDBjNFpDc1JpRkJ6NkhmZ28rdkNCTFFadks4TjhseG5tYm9wcVdYWHBxQXpkTHBQejlOMkE3YXNnYTFCbnV0cjJjZkg1MkZuS3hHSTdsbG42SFFmQm9qTzArWXgxY0RlSU0vMWxhbWpjTWhXSWhBRmRZWk85MkdBNkR6dGEzdVVCbm11cjB3ZGxkU3lhMVBRR1RyZHArZHBYelBRdFlJODExZW1qc0loVzRsQWRNODdRNmY3TUVCMG52YTFQR29IZWE2dlRCMlYxTEpyVTlBWk90Mm41MmxmSTlCSEJYbXVyMHdkaFVPMkVvSG9ubmVHVHZkaGdPZzg3ZWYyT0RySWMzMWw2cWlrbGwyYmdzN1E2VDQ5VC9zNUE5MHF5SE45WmVvb0hPcDM4OC9xT2x1YlVMQ256YWpuL3dBeXVVei9PZU5NbjlNVzVza0dqbjZVbm04NTdlc0xUTTlyRHJYVDNjZWo1MXZYbC9qYlk4YWo2M2k1aCs1NmVhNDl1ZWtWVUdmOFA2dVIxUVY2NU5WNzBya0w4djZGRmVqOWRxNnNMQ0RJNWFBQ1hXNm9oMElCRDNnVkFpNHVGK2dGaGsvYkNnaHlmVytCcm0rcXh3Y0NndndBcU9ETEFsMkE1OUp0QW9LOHpXdlAyUUs5UjgwMW13UUVlUk5YMGNrQ1hjVG40czhFQlBrem5XTytKdERIdUY2NlYwRStiL2tGK2p6N3B4dFprTTlmVW9FK2Z3MkduNEVnOTdPRUF0M1BXcHcrazdlM3QwMXpFT1JOWEUxT0Z1Z216TTgzU0hpVCtwY3AwTGErQlB4dnE3N1dvL3ZaVE0rM0RpOHVGT1pPVjhvOWRLY0wwOXUwdkhDaXR4WEp6MGVnOHk2T2ZnZ0k4bGlsSU5CanJWZXoyUXB5TStxcUF3bDBWYzd4Ty9QSTlkaHIrRHJBOUtmM3VQcXpUUS9JMkFpMEVuaDl2WW5JellGV2Mxa3pqa2U1MXlnNWg4QWdBZ0k5eUVLWkpvRTFBZ0s5UnNrNUJBWVJFT2hCRnNvMENhd1I2UG9YL0k5dndLTmdhMWJTT2EwRXVzNk1lK2hXWldBY0FnMEVCTG9Cc2lFSXRCSVE2RmJTeGlGQWdBQUJBZ1FJRUNCQWdBQUJBZ1FJRUNCQWdBQUJBZ1FJRUNCQWdBQUJBZ1FJRUNCQWdBQUJBZ1FJRUNCQWdBQUJBZ1FJRUNCQWdBQUJBZ1FJRUNCQWdBQUJBZ1FJRUNCQWdBQUJBZ1FJRUNCQWdBQUJBZ1FJRUNCQWdBQUJBZ1FJRUNCQWdBQUJBZ1FJRUNCQWdBQUJBZ1FJRUNCQWdBQUJBZ1FJRUNCQWdBQUJBZ1FJRUNCQWdBQUJBZ1FJRUNCQWdBQUJBZ1FJRUNCQWdBQUJBZ1FJRUNCQWdBQUJBZ1FJRUhocWdmOEFNRDh0L0k3NzBDUUFBQUFBU1VWT1JLNUNZSUk9IiBoZWlnaHQ9IjE2NCIgd2lkdGg9IjI0NCIvPjxjbGlwUGF0aCBpZD0iY2xpcDQiPjxwYXRoIGNsaXAtcnVsZT0iZXZlbm9kZCIgZmlsbC1ydWxlPSJldmVub2RkIiBkPSJNMTI1Nzg1IDEyNDIwMCA2NTI4MzUgMTI0MjAwIDY1MjgzNSAzOTQ4ODQgMTI1Nzg1IDM5NDg4NFoiLz48L2NsaXBQYXRoPjwvZGVmcz48ZyB0cmFuc2Zvcm09InRyYW5zbGF0ZSgtNjY4IC02MzYpIiBjbGlwLXBhdGg9InVybCgjY2xpcDApIj48ZyBjbGlwLXBhdGg9InVybCgjY2xpcDEpIj48ZyB0cmFuc2Zvcm09Im1hdHJpeCgwLjAwMDE1NzQ4IDAgMCAwLjAwMDE1NzQ4IDY2OCA2MzYpIiBjbGlwLXBhdGg9InVybCgjY2xpcDIpIj48ZyB0cmFuc2Zvcm09Im1hdHJpeCgxIDAgMCAxLjAwODc0IC0xMjU3ODUgLTEyNTI4NSkiIGNsaXAtcGF0aD0idXJsKCNjbGlwNCkiPjx1c2UgdHJhbnNmb3JtPSJzY2FsZSgzMTg0LjU0IDMxODQuNTQpIiBvcGFjaXR5PSIxIiB4bGluazpocmVmPSIjaW1nMyIgaGVpZ2h0PSIxMDAlIiB3aWR0aD0iMTAwJSIvPjwvZz48L2c+PC9nPjwvZz48L3N2Zz4=;clipPath=inset(0% 2.38% 4.55% 0%);points=[[0,0.5,0,0,0],[1,0.5,0,0,0]];" parent="1" vertex="1">
          <mxGeometry x="190" y="395.0000000000001" width="40.09" height="20.53390243902439" as="geometry" />
        </mxCell>
        <mxCell id="wdwd_AqZ2ZVo4Lx0RvvQ-36" value="SVNP-2A" style="shape=image;verticalLabelPosition=bottom;verticalAlign=top;imageAspect=0;aspect=fixed;image=data:image/svg+xml,PHN2ZyB4bWxuczp4bGluaz0iaHR0cDovL3d3dy53My5vcmcvMTk5OS94bGluayIgeG1sbnM9Imh0dHA6Ly93d3cudzMub3JnLzIwMDAvc3ZnIiBvdmVyZmxvdz0iaGlkZGVuIiB4bWw6c3BhY2U9InByZXNlcnZlIiBoZWlnaHQ9IjYyIiB3aWR0aD0iODQiIHZpZXdCb3g9IjAgMCA4NCA2MiI+PGRlZnM+PGNsaXBQYXRoIGlkPSJjbGlwMCI+PHJlY3QgaGVpZ2h0PSI2MiIgd2lkdGg9Ijg0IiB5PSI2MjAiIHg9IjEwNDYiLz48L2NsaXBQYXRoPjxjbGlwUGF0aCBpZD0iY2xpcDEiPjxyZWN0IGhlaWdodD0iNjIiIHdpZHRoPSI4NCIgeT0iNjIwIiB4PSIxMDQ2Ii8+PC9jbGlwUGF0aD48Y2xpcFBhdGggaWQ9ImNsaXAyIj48cmVjdCBoZWlnaHQ9IjM5MzcwMCIgd2lkdGg9IjUyNzA1MCIgeT0iMCIgeD0iMCIvPjwvY2xpcFBhdGg+PGltYWdlIGlkPSJpbWczIiBwcmVzZXJ2ZUFzcGVjdFJhdGlvPSJub25lIiB4bGluazpocmVmPSJkYXRhOmltYWdlL3BuZztiYXNlNjQsaVZCT1J3MEtHZ29BQUFBTlNVaEVVZ0FBQVBRQUFBRE1DQVlBQUFCRUJvNCtBQUFBQVhOU1IwSUFyczRjNlFBQUFJUmxXRWxtVFUwQUtnQUFBQWdBQlFFU0FBTUFBQUFCQUFFQUFBRWFBQVVBQUFBQkFBQUFTZ0ViQUFVQUFBQUJBQUFBVWdFb0FBTUFBQUFCQUFJQUFJZHBBQVFBQUFBQkFBQUFXZ0FBQUFBQUFBQklBQUFBQVFBQUFFZ0FBQUFCQUFPZ0FRQURBQUFBQVFBQkFBQ2dBZ0FFQUFBQUFRQUFBUFNnQXdBRUFBQUFBUUFBQU13QUFBQUFNUXMxZ0FBQUFBbHdTRmx6QUFBTEV3QUFDeE1CQUpxY0dBQUFEZlZKUkVGVWVBSHRtZ3V5NHpZT1JaUFU3Q3ZLeWhxek1tZFc5dWF5eSt3bVlOcFBOdlVocVlNcUZRbUtIL0FBTjNiNzVZOC9NQWhBQUFJUWdBQUVJQUFCQ0VBQUFoQ0FBQVFnQUFFSVFBQUNFSUFBQkNBQUFRaEFBQUlRZ0FBRUlBQUJDRUFBQWhDQUFBUWdBQUVJUUFBQ0VJQUFCQ0FBQVFoQUFBSVFnQUFFSUFBQkNFQUFBaENBQUFRZ0FBRUlRQUFDRUlBQUJDQUFBUWhBQUFJUWdBQUVJQUFCQ0VBQUFoQ0FBQVFnQUFFSVFBQUNFSUFBQkNBQUFRaEFBQUlRZ0FBRUlBQUJDRUFBQWhDQUFBUWdBQUVJUUFBQ0VJQUFCQ0FBQVFoQUFBSVFnQUFFSUFBQkNFQUFBaENBQUFRZ0FBRUlRQUFDRUlBQUJDQUFBUWhBQUFJUWdBQUVJQUFCQ0VBQUFoQ0FBQVFnY0FVQ3BrdCtGVS95c2NrSi9EWDUvYmdlQkM1RkFFRmZLdDFjZG5ZQ0NIcjJESE8vU3hGQTBKZEtONWVkblFDQ25qM0QzTzlTQlA2ODFHMlB2V3o2aGJrMysxY0IvZThlVk9xbkI0TUFCRllRS1A5azFIUC9wcnZZaXZzd0JRS1hKdEN6aUovRlpwZk9HSmVId0FzQ3owVFQrL2hOZDFwZTNJdFhFSURBQ1FSTVo1Yi84VWorb2llMTZTbmYxZnFMNW1BUWdFQW5CRXh4bEVKTmZzMU1nK1c4c2wrYnoxakhCUGl6VmNmSk9TZzAwem5wcngzL3JaeTNWTVlZNnBnQWd1NDRPUWVIWmpvdml2ckh3VEZ3WENNQkJOMEljTExsRnU2ekJCKzNjd0lJdXZNRUhSeWVoZlBpSjNaNGpkc2JBUVRkVzBiT2k4ZDBORit4eitPL3ljbi8yV1FYTmhtVndLTEFrNGhUV3pPckRUTFdMd0VFM1c5dXRvN3NiMjI0M0RmTm44VFp2dys3aHEvYkRnY09CTTRsWURyKzY0UG5waldMSG14QUFueENENWkwblVMK1YvdW1UK1hVWW9NUzRFZXhRUk8zUTlpTDlrd1BOakFCQkQxdzhuWUlQZjNibXEvY080QTlha3NFZlJUcDg4OUpYNmYvMFpQYTlEeXpSUzhROVRNNmpFUGdKQUttYzcrS0ovazFNdzJXODhwK2JUNWpIUlBnRTdyajVCd1VtdW1jUC9YVVByVVhqV01ERVVEUUF5VnI1MUJOKzBkUi85ajVUTGJmbUFDQzNoam80TnRaaUg4SlBtN25CQkIwNXdrNk9Ed0w1OFZQN1BBYXR6Y0NDTHEzakp3WGorbG92bUtmeDMrVGsvay94VGJCT093bWl5SlBJazV0emF3MnlGaS9CQkIwdjduWk9ySy90ZUZ5M3pSL0VtZi9QdXdhdm00N0hEZ1FPSmVBNmZpdkQ1NmIxaXg2c0FFSjhBazlZTkoyQ3ZsZjdacytsVk9MRFVxQUg4VUdUZHdPWVMvYU16M1l3QVFROU1ESjJ5SDA5Rzlydm5MdkFQYW9MUkgwVWFUUFB5ZDluZjVIVDJyVDg4d1d2VURVeitndzNremdTenRZOHk3WDJ5QXhTK3p5ay95YW1RYnpuTmpXNWw5MUxITzY2djAzdTNkWlpBa3F0bzZBYWRvNzdPTDh0SGJSYzNVekFTZzVYcDFIOC8xTG1MbWZJR092Q1poZVoxNnBUZjUzWnBwUXJybDl0MkRpOTVGRjVqTHhsWSs1V2daWmF4TjByRTdBTkZ3eVMvNGFLOWVrL3RYTWRPSElvUFM3NWpINmoySS83dkJURXJCMkFoYTJlUFhqV1pnNnZKdnVub1NiYW1wWUcxM1FHVHpDemlRK2IwMUxoeTdtRDYrZTdqMjhrRCs4K3luTEV1eGZqNW45NnBmam9XL3lyMjRtQUNXcjVFZGJOSERUVTg0ciszSCtUTDY5dVBkUEJrOXFiU1lHcDl5bExMQ3ZiRTlndTdtSzFrNkp1STlEMDkxTEhqZjV5LzFKL2ZTVTcyUGY5SDVHTTEwcTN0WDVxYmF5VmViT3lPVFFPem5ZR1hSdUVmYlRYSmplT0hZci9adm1MWHBtTTlPRlh2SW9oWnpycTdKbU5pNkgzOGNsSVlPT0xjSit5SXRweExIN3hrZklzYWprVjVocENHc2g0S0JXbUxzaGhQMEx0YW5uMkszdzA1cFp6SFNSbC9ldmZTSzdZa0xRdTlTQ1Mwb0Uvc3hIMkQ5L1AzRHN2aXZ3Ky91YjJrWFBxR1lLL09XOTF3ZzUxMVZscjFHNWRCTzNTMDRHdmJhOXNMQXRGR1B5RnoycFRZL2pXdkVYalkxa3BtQmYzdWtkSWVmNnF1dzVFcE11WTNWSnlxRGZiUzhvYkF2Rm1QeWFtUVlkNDhLdnplOXR6SXA0cS9mNFJNaTV2aXA3OTNiLzRlSnhTY3FnUDIwdkpHd0x4Wmo4VjJaNjZWakxYL1QwYXFiQVlyek9ieEZ5cnEvS0diM3lHQ1l1bDZRTXVyVzlnTEF0RkdQeXZ6UFRoSkwzN2JzRko3eVBNWmJ4L3V4dkllUmNYNEZIMmg5ckpPQVNsa0Z2MVU0c2JCUDNrbDN5MTFpNXBxY0NOZ1VmWTNQK2xrTE85VlU1Y3cxRDVyd2c0SktXUVcvZFRpaHNFOU9TWGZLL005T0VkOWQ4dDJmcit4aFRHZC9QL2g1Q3p2VVZlS1R6c0VZQ0xvRVo5Rjd0Uk1JMmNTL1pKZitWbVY2VzgxTS9qWjFscG9OalBNN2ZVOGk1dmlveG5NVmptbk5kRWpQb3Zkc0poRzJoR0pNZmJkSEFUWTlqWFBqcUhtNm1FNS9GODNQOENDSG4rcXJFY2ppUTJRNTB5YzJnajJvSEZyYUZZcnpKWCs1UDZxZkhzUTIreVQvU1RJZTlpdWZyU0NIbitxckVkQ1NUS2M5eVNjNmdqMjQvRUxhTHUxSVl2YjYvS2RibHdFb3luZldTeFJsQ3p2VlZpZTFBTkhNZTVaS2RRWi9WdmlGc0YzZWxNSHA3ZjFPTXk0RWxaRHJySllNemhaenJxeExqZ1lqbVBNb2xQWU0rdTEwcGJCZDdwVGg2ZUg5VFhNdUJwV002NitXOWV4QnlycTlLckFlaW12TW9sL3dNdXBkMklHRW40ZVpuVVQ4OVI1cnBNSmZMNlBjazVGeGZNVWI1V0NNQlZ3UVpkRy90U21GYkk0dDNscWV6U25iSlA4Tk1oNVp4UFBSN0ZIS3VyMHJzWnpDYzZreFhBQmwwcjIxSHdyWlFqTWsvMGt5SHVkeEZ2MmNoNS9xS01jdkhHZ200b3NpZ2UyODdFTGFKZThrdStVZVk2WkR5M0lmK0NFTE85Vlc1eXhFTXB6N0RGVVFHUFVwN29yQXRGR1B5OXpUVDVpNVgwUjlKeUxtKzRoM2tZNDBFWEpGazBLTzFKd2pieEwxa2wvdzl6TFJwZWM1RGYwUWg1L3FxM0cwUGhwZmEweFZJQmoxcWU2Q3dMUlJqOHJjMDAyWXVOOUVmV2NpNXZ1S2Q1R09OQkZ6UlpOQ2p0d2NJMjhTOVpKZjhMY3kwU2JudlEzOEdJZWY2cXR4MUM0YVgzc01WVEFZOVM3dWpzQzBVWS9KYnpMVFk1U0w2TXdrNTExZThvM3lza1lBcm9neDZ0bllIWVp1NGwreVMvNG1aRnBYN1BQUm5GSEt1cjhyZFAySEltb0tBSzZBTWV0WjJRMkdiR0pic2t2K09tU2FYNngvNk13czUxMWVGd1RzTW1Wc2g0QW9wZzU2OTNVRFlKcFlsdStTdk1kT2tjdDFEL3dwQ3p2VlZZYkdHSVhOZUVIQUZsVUZmcFcwUXRvbHB5Uzc1cjh6MHNwei8wTCtTa0hOOVZaaThZc2k3RlFSY1lXWFFWMnMvRUxhSmJja3UrVFV6RFpiekh2cFhGSEt1cndxYkdrUEczaURnQ2l5RHZtcjdockJOakV0MnlTL041SlR2SC9wWEZuS3Vyd3Fqa2lIOUR3aTRRc3Vncjk2dUZIYkp6dTdzVTF1T1AvUVI4dS9xcXJDNlk2VDVsSUFydU4rbzZTVUNId2piOFN3TEZpRS8xbFRKNTk3L3RJNVpkeWZnQ3ZBUk9TT0pRSXV3RWZMekdycUx1S3hCaE5sSW9JVDVuRHh2ZmhKNFI5Z0krZnVpR1UzUWZ6V0tqZVVRZ0FBRTNpTEFKL1QzSHlSODVWN0I2Sk1wcWxSWGYyOVZMcE9yQkJ6UVQ1SXk4NXFWWDdGTlpOUGpXRWFmcitDUGxSSVp5Y2NhQ2JnaWZFUit6WkUzaEJ6eG13WWMwK2dqN044MUZkbkl4eG9KdU9MN2pmcWF2UVloeHpTWUJoemI2Q1BzcnhxZnlCSC9UUUlPNmpWbHZQclBVdlltMnpROXJYR01vMzlsWVVjVzhyRkdBcTdZcmlib0RUK1J2MHVEYVlKakhmMHJDanN5a0k4MUVuQkZkaFZCSHlqa21CN1RnR01lL1NzSk85NWRQdFpJd0JYWDdJSStVY2d4VGFZQnh6NzZWeEIydkxOOHJKR0FLNnBaQmQyUmtHTzZUQU11QjlHZldkanhydkt4UmdLdW1HWVRkTWRDam1rekRiaGNSSDlHWWNjN3lzY2FDYmdpbWtYUUF3azVwczgwNEhJUy9abUVIZThtSDJzazRJcG5kRUVQTE9TWVJ0T0F5MDMwWnhCMnZKTjhySkdBSzVwUkJUMlJrR002VFFNdVI5RWZXZGp4THZLeFJnS3VXRVlUOU1SQ2ptazFEYmhjUlg5RVljYzd5TWNhQ2JnaUdVWFFGeEp5VEs5cHdPVXMraU1KTzhZdUgyc2s0SXFqZDBGZldNZ3h6YVlCbDd2b2p5RHNHTE44ckpHQUs0cGVCWTJRbjJiWjlNYmxNUG85Q3p2R0toOXJKT0NLb1RkQkkrVFYyVFhOZExtTWZvL0NqakhLeHhvSnVDTG9SZEFJK2VPc21sYTZuRWEvSjJISDJPUmpqUVJjOHM4V05FSnV6T2J2NWFhdXkyMzBleEIyakVrKzFrakFKZjBzUVNQa3hpdytYMjU2NVhJYy9UT0ZIV09SanpVU2NNaytXdEFJdVRGNzY1ZWJwcnBjUi84TVljY1k1R09OQkZ5U2p4STBRbTdNMnVmTFRVdGR6cU4vcExEajJmS3hSZ0l1dVhzTEdpRTNabXU3NWFhdFhPNmpmNFN3NDVueXNVWUNMcWw3Q1JvaE4yWnB2K1dtclYwTlJIOVBZY2V6NUdPTkJGd3l0eFkwUW03TXpuSExUVWU1V29qK0hzS09aOGpIR2dtNEpHNGxhSVRjbUpYemxwdU9kalVSL1MyRkhmZVdqelVTY01sckZUUkNic3hHUDh0Tm9iamFpUDRXd281N3lzY2FDYmlrZlNwb2hOeVloWDZYbTBKek5STDlGbUhIdmVSampRUmNzdDRWTkVKdXBEL09jbE9vcmxhaS80bXc0eDd5c1VZQ0xrbHJCWTJRRzZtUHU5d1V1cXVaNkw4ajdMaFdQdFpJd0NYbk8wRWo1RWJhOHl3M1hjWFZUdlRYQ0R1dWtZODFFbkJKZVNab2hOeEllZDdscHF1NUdvcitLMkhIdWZLeFJnSXVHVkhRQ0xtUjduV1dtNjdxYWluNk5XSEhPZkt4UmdJdUNWblFDTG1SNm5XWG02N3VhaXI2cGJEak8vbFlJd0VISHlFMzBtUjVKbURxdU5xSy9wTmF5K3RwUHlUd0VucElnbjE0QnN1dVN5RFZ6RHMxZGwxU0c5MThEZXlVRkF3Q0xRUk1pOWZVV3NzWnJQMEdza0VJQWhzVFNEWDFTdGdiSDNlOTdXcHdFM1FNQW5zU01HMWVxNzA5ejd6RTNpWFVCQm1Ed0pFRVRJZVZOWGprMlZPZWxXRGFsRGZqVWlNUlNEV1lhaEdEQUFRZ0FBRUlRQUFDRUlBQUJDQUFBUWhBQUFJUWdBQUVJQUFCQ0VBQUFoQ0FBQVFnQUFFSVFBQUNFSUFBQkNBQUFRaEFBQUlRZ0FBRUlBQUJDRUFBQWhDQUFBUWdBQUVJUUFBQ0VJQUFCQ0FBQVFoQUFBSVFnQUFFSUFBQkNFQUFBaENBQUFRZ0FBRUlRQUFDRUlBQUJDQUFBUWhBQUFJUWdBQUVJQUFCQ0VBQUFoQ0FBQVFnQUFFSVFBQUNFSUFBQkNBQUFRaEFBQUlRZ0FBRUlBQUJDRUFBQWhDQUFBUWdBQUVJUUFBQ0VJQUFCQ0FBQVFoQUFBSVFnQUFFSUFBQkNFQUFBaENBQUFRZ3NDV0Ivd004QVVpUW0xM04zd0FBQUFCSlJVNUVya0pnZ2c9PSIgaGVpZ2h0PSIyMDQiIHdpZHRoPSIyNDQiLz48Y2xpcFBhdGggaWQ9ImNsaXA0Ij48cmVjdCBoZWlnaHQ9IjM5MzcwMCIgd2lkdGg9IjUyMTI2MyIgeT0iMTI3NTU4IiB4PSIxMjI4MjkiLz48L2NsaXBQYXRoPjwvZGVmcz48ZyB0cmFuc2Zvcm09InRyYW5zbGF0ZSgtMTA0NiAtNjIwKSIgY2xpcC1wYXRoPSJ1cmwoI2NsaXAwKSI+PGcgY2xpcC1wYXRoPSJ1cmwoI2NsaXAxKSI+PGcgdHJhbnNmb3JtPSJtYXRyaXgoMC4wMDAxNTc0OCAwIDAgMC4wMDAxNTc0OCAxMDQ3IDYyMCkiIGNsaXAtcGF0aD0idXJsKCNjbGlwMikiPjxnIHRyYW5zZm9ybT0ibWF0cml4KDEuMDExMSAwIDAgMSAtMTI0MTkyIC0xMjc1NTgpIiBjbGlwLXBhdGg9InVybCgjY2xpcDQpIj48dXNlIHRyYW5zZm9ybT0ic2NhbGUoMzE0OS41NyAzMTQ5LjU3KSIgb3BhY2l0eT0iMSIgeGxpbms6aHJlZj0iI2ltZzMiIGhlaWdodD0iMTAwJSIgd2lkdGg9IjEwMCUiLz48L2c+PC9nPjwvZz48L2c+PC9zdmc+;clipPath=inset(0% 0% 0% 1.19%);points=[[0.02,0.63,0,0,0],[1,0.63,0,0,0]];" parent="1" vertex="1">
          <mxGeometry x="349.35" y="454.9999999999999" width="40.65" height="30.365060240963857" as="geometry" />
        </mxCell>
        <mxCell id="wdwd_AqZ2ZVo4Lx0RvvQ-37" value="SVNP-2B" style="shape=image;verticalLabelPosition=bottom;verticalAlign=top;imageAspect=0;aspect=fixed;image=data:image/svg+xml,PHN2ZyB4bWxuczp4bGluaz0iaHR0cDovL3d3dy53My5vcmcvMTk5OS94bGluayIgeG1sbnM9Imh0dHA6Ly93d3cudzMub3JnLzIwMDAvc3ZnIiBvdmVyZmxvdz0iaGlkZGVuIiB4bWw6c3BhY2U9InByZXNlcnZlIiBoZWlnaHQ9IjYyIiB3aWR0aD0iODQiIHZpZXdCb3g9IjAgMCA4NCA2MiI+PGRlZnM+PGNsaXBQYXRoIGlkPSJjbGlwMCI+PHJlY3QgaGVpZ2h0PSI2MiIgd2lkdGg9Ijg0IiB5PSI2MjAiIHg9IjEwNDYiLz48L2NsaXBQYXRoPjxjbGlwUGF0aCBpZD0iY2xpcDEiPjxyZWN0IGhlaWdodD0iNjIiIHdpZHRoPSI4NCIgeT0iNjIwIiB4PSIxMDQ2Ii8+PC9jbGlwUGF0aD48Y2xpcFBhdGggaWQ9ImNsaXAyIj48cmVjdCBoZWlnaHQ9IjM5MzcwMCIgd2lkdGg9IjUyNzA1MCIgeT0iMCIgeD0iMCIvPjwvY2xpcFBhdGg+PGltYWdlIGlkPSJpbWczIiBwcmVzZXJ2ZUFzcGVjdFJhdGlvPSJub25lIiB4bGluazpocmVmPSJkYXRhOmltYWdlL3BuZztiYXNlNjQsaVZCT1J3MEtHZ29BQUFBTlNVaEVVZ0FBQVBRQUFBRE1DQVlBQUFCRUJvNCtBQUFBQVhOU1IwSUFyczRjNlFBQUFJUmxXRWxtVFUwQUtnQUFBQWdBQlFFU0FBTUFBQUFCQUFFQUFBRWFBQVVBQUFBQkFBQUFTZ0ViQUFVQUFBQUJBQUFBVWdFb0FBTUFBQUFCQUFJQUFJZHBBQVFBQUFBQkFBQUFXZ0FBQUFBQUFBQklBQUFBQVFBQUFFZ0FBQUFCQUFPZ0FRQURBQUFBQVFBQkFBQ2dBZ0FFQUFBQUFRQUFBUFNnQXdBRUFBQUFBUUFBQU13QUFBQUFNUXMxZ0FBQUFBbHdTRmx6QUFBTEV3QUFDeE1CQUpxY0dBQUFEZlZKUkVGVWVBSHRtZ3V5NHpZT1JaUFU3Q3ZLeWhxek1tZFc5dWF5eSt3bVlOcFBOdlVocVlNcUZRbUtIL0FBTjNiNzVZOC9NQWhBQUFJUWdBQUVJQUFCQ0VBQUFoQ0FBQVFnQUFFSVFBQUNFSUFBQkNBQUFRaEFBQUlRZ0FBRUlBQUJDRUFBQWhDQUFBUWdBQUVJUUFBQ0VJQUFCQ0FBQVFoQUFBSVFnQUFFSUFBQkNFQUFBaENBQUFRZ0FBRUlRQUFDRUlBQUJDQUFBUWhBQUFJUWdBQUVJQUFCQ0VBQUFoQ0FBQVFnQUFFSVFBQUNFSUFBQkNBQUFRaEFBQUlRZ0FBRUlBQUJDRUFBQWhDQUFBUWdBQUVJUUFBQ0VJQUFCQ0FBQVFoQUFBSVFnQUFFSUFBQkNFQUFBaENBQUFRZ0FBRUlRQUFDRUlBQUJDQUFBUWhBQUFJUWdBQUVJQUFCQ0VBQUFoQ0FBQVFnY0FVQ3BrdCtGVS95c2NrSi9EWDUvYmdlQkM1RkFFRmZLdDFjZG5ZQ0NIcjJESE8vU3hGQTBKZEtONWVkblFDQ25qM0QzTzlTQlA2ODFHMlB2V3o2aGJrMysxY0IvZThlVk9xbkI0TUFCRllRS1A5azFIUC9wcnZZaXZzd0JRS1hKdEN6aUovRlpwZk9HSmVId0FzQ3owVFQrL2hOZDFwZTNJdFhFSURBQ1FSTVo1Yi84VWorb2llMTZTbmYxZnFMNW1BUWdFQW5CRXh4bEVKTmZzMU1nK1c4c2wrYnoxakhCUGl6VmNmSk9TZzAwem5wcngzL3JaeTNWTVlZNnBnQWd1NDRPUWVIWmpvdml2ckh3VEZ3WENNQkJOMEljTExsRnU2ekJCKzNjd0lJdXZNRUhSeWVoZlBpSjNaNGpkc2JBUVRkVzBiT2k4ZDBORit4eitPL3ljbi8yV1FYTmhtVndLTEFrNGhUV3pPckRUTFdMd0VFM1c5dXRvN3NiMjI0M0RmTm44VFp2dys3aHEvYkRnY09CTTRsWURyKzY0UG5waldMSG14QUFueENENWkwblVMK1YvdW1UK1hVWW9NUzRFZXhRUk8zUTlpTDlrd1BOakFCQkQxdzhuWUlQZjNibXEvY080QTlha3NFZlJUcDg4OUpYNmYvMFpQYTlEeXpSUzhROVRNNmpFUGdKQUttYzcrS0ovazFNdzJXODhwK2JUNWpIUlBnRTdyajVCd1VtdW1jUC9YVVByVVhqV01ERVVEUUF5VnI1MUJOKzBkUi85ajVUTGJmbUFDQzNoam80TnRaaUg4SlBtN25CQkIwNXdrNk9Ed0w1OFZQN1BBYXR6Y0NDTHEzakp3WGorbG92bUtmeDMrVGsvay94VGJCT093bWl5SlBJazV0emF3MnlGaS9CQkIwdjduWk9ySy90ZUZ5M3pSL0VtZi9QdXdhdm00N0hEZ1FPSmVBNmZpdkQ1NmIxaXg2c0FFSjhBazlZTkoyQ3ZsZjdacytsVk9MRFVxQUg4VUdUZHdPWVMvYU16M1l3QVFROU1ESjJ5SDA5Rzlydm5MdkFQYW9MUkgwVWFUUFB5ZDluZjVIVDJyVDg4d1d2VURVeitndzNremdTenRZOHk3WDJ5QXhTK3p5ay95YW1RYnpuTmpXNWw5MUxITzY2djAzdTNkWlpBa3F0bzZBYWRvNzdPTDh0SGJSYzNVekFTZzVYcDFIOC8xTG1MbWZJR092Q1poZVoxNnBUZjUzWnBwUXJybDl0MkRpOTVGRjVqTHhsWSs1V2daWmF4TjByRTdBTkZ3eVMvNGFLOWVrL3RYTWRPSElvUFM3NWpINmoySS83dkJURXJCMkFoYTJlUFhqV1pnNnZKdnVub1NiYW1wWUcxM1FHVHpDemlRK2IwMUxoeTdtRDYrZTdqMjhrRCs4K3luTEV1eGZqNW45NnBmam9XL3lyMjRtQUNXcjVFZGJOSERUVTg0ciszSCtUTDY5dVBkUEJrOXFiU1lHcDl5bExMQ3ZiRTlndTdtSzFrNkp1STlEMDkxTEhqZjV5LzFKL2ZTVTcyUGY5SDVHTTEwcTN0WDVxYmF5VmViT3lPVFFPem5ZR1hSdUVmYlRYSmplT0hZci9adm1MWHBtTTlPRlh2SW9oWnpycTdKbU5pNkgzOGNsSVlPT0xjSit5SXRweExIN3hrZklzYWprVjVocENHc2g0S0JXbUxzaGhQMEx0YW5uMkszdzA1cFp6SFNSbC9ldmZTSzdZa0xRdTlTQ1Mwb0Uvc3hIMkQ5L1AzRHN2aXZ3Ky91YjJrWFBxR1lLL09XOTF3ZzUxMVZscjFHNWRCTzNTMDRHdmJhOXNMQXRGR1B5RnoycFRZL2pXdkVYalkxa3BtQmYzdWtkSWVmNnF1dzVFcE11WTNWSnlxRGZiUzhvYkF2Rm1QeWFtUVlkNDhLdnplOXR6SXA0cS9mNFJNaTV2aXA3OTNiLzRlSnhTY3FnUDIwdkpHd0x4Wmo4VjJaNjZWakxYL1QwYXFiQVlyek9ieEZ5cnEvS0diM3lHQ1l1bDZRTXVyVzlnTEF0RkdQeXZ6UFRoSkwzN2JzRko3eVBNWmJ4L3V4dkllUmNYNEZIMmg5ckpPQVNsa0Z2MVU0c2JCUDNrbDN5MTFpNXBxY0NOZ1VmWTNQK2xrTE85VlU1Y3cxRDVyd2c0SktXUVcvZFRpaHNFOU9TWGZLL005T0VkOWQ4dDJmcit4aFRHZC9QL2g1Q3p2VVZlS1R6c0VZQ0xvRVo5Rjd0Uk1JMmNTL1pKZitWbVY2VzgxTS9qWjFscG9OalBNN2ZVOGk1dmlveG5NVmptbk5kRWpQb3Zkc0poRzJoR0pNZmJkSEFUWTlqWFBqcUhtNm1FNS9GODNQOENDSG4rcXJFY2ppUTJRNTB5YzJnajJvSEZyYUZZcnpKWCs1UDZxZkhzUTIreVQvU1RJZTlpdWZyU0NIbitxckVkQ1NUS2M5eVNjNmdqMjQvRUxhTHUxSVl2YjYvS2RibHdFb3luZldTeFJsQ3p2VlZpZTFBTkhNZTVaS2RRWi9WdmlGc0YzZWxNSHA3ZjFPTXk0RWxaRHJySllNemhaenJxeExqZ1lqbVBNb2xQWU0rdTEwcGJCZDdwVGg2ZUg5VFhNdUJwV002NitXOWV4QnlycTlLckFlaW12TW9sL3dNdXBkMklHRW40ZVpuVVQ4OVI1cnBNSmZMNlBjazVGeGZNVWI1V0NNQlZ3UVpkRy90U21GYkk0dDNscWV6U25iSlA4Tk1oNVp4UFBSN0ZIS3VyMHJzWnpDYzZreFhBQmwwcjIxSHdyWlFqTWsvMGt5SHVkeEZ2MmNoNS9xS01jdkhHZ200b3NpZ2UyODdFTGFKZThrdStVZVk2WkR5M0lmK0NFTE85Vlc1eXhFTXB6N0RGVVFHUFVwN29yQXRGR1B5OXpUVDVpNVgwUjlKeUxtKzRoM2tZNDBFWEpGazBLTzFKd2pieEwxa2wvdzl6TFJwZWM1RGYwUWg1L3FxM0cwUGhwZmEweFZJQmoxcWU2Q3dMUlJqOHJjMDAyWXVOOUVmV2NpNXZ1S2Q1R09OQkZ6UlpOQ2p0d2NJMjhTOVpKZjhMY3kwU2JudlEzOEdJZWY2cXR4MUM0YVgzc01WVEFZOVM3dWpzQzBVWS9KYnpMVFk1U0w2TXdrNTExZThvM3lza1lBcm9neDZ0bllIWVp1NGwreVMvNG1aRnBYN1BQUm5GSEt1cjhyZFAySEltb0tBSzZBTWV0WjJRMkdiR0pic2t2K09tU2FYNngvNk13czUxMWVGd1RzTW1Wc2g0QW9wZzU2OTNVRFlKcFlsdStTdk1kT2tjdDFEL3dwQ3p2VlZZYkdHSVhOZUVIQUZsVUZmcFcwUXRvbHB5Uzc1cjh6MHNwei8wTCtTa0hOOVZaaThZc2k3RlFSY1lXWFFWMnMvRUxhSmJja3UrVFV6RFpiekh2cFhGSEt1cndxYkdrUEczaURnQ2l5RHZtcjdockJOakV0MnlTL041SlR2SC9wWEZuS3Vyd3Fqa2lIOUR3aTRRc3Vncjk2dUZIYkp6dTdzVTF1T1AvUVI4dS9xcXJDNlk2VDVsSUFydU4rbzZTVUNId2piOFN3TEZpRS8xbFRKNTk3L3RJNVpkeWZnQ3ZBUk9TT0pRSXV3RWZMekdycUx1S3hCaE5sSW9JVDVuRHh2ZmhKNFI5Z0krZnVpR1UzUWZ6V0tqZVVRZ0FBRTNpTEFKL1QzSHlSODVWN0I2Sk1wcWxSWGYyOVZMcE9yQkJ6UVQ1SXk4NXFWWDdGTlpOUGpXRWFmcitDUGxSSVp5Y2NhQ2JnaWZFUit6WkUzaEJ6eG13WWMwK2dqN044MUZkbkl4eG9KdU9MN2pmcWF2UVloeHpTWUJoemI2Q1BzcnhxZnlCSC9UUUlPNmpWbHZQclBVdlltMnpROXJYR01vMzlsWVVjVzhyRkdBcTdZcmlib0RUK1J2MHVEYVlKakhmMHJDanN5a0k4MUVuQkZkaFZCSHlqa21CN1RnR01lL1NzSk85NWRQdFpJd0JYWDdJSStVY2d4VGFZQnh6NzZWeEIydkxOOHJKR0FLNnBaQmQyUmtHTzZUQU11QjlHZldkanhydkt4UmdLdW1HWVRkTWRDam1rekRiaGNSSDlHWWNjN3lzY2FDYmdpbWtYUUF3azVwczgwNEhJUy9abUVIZThtSDJzazRJcG5kRUVQTE9TWVJ0T0F5MDMwWnhCMnZKTjhySkdBSzVwUkJUMlJrR002VFFNdVI5RWZXZGp4THZLeFJnS3VXRVlUOU1SQ2ptazFEYmhjUlg5RVljYzd5TWNhQ2JnaUdVWFFGeEp5VEs5cHdPVXMraU1KTzhZdUgyc2s0SXFqZDBGZldNZ3h6YVlCbDd2b2p5RHNHTE44ckpHQUs0cGVCWTJRbjJiWjlNYmxNUG85Q3p2R0toOXJKT0NLb1RkQkkrVFYyVFhOZExtTWZvL0NqakhLeHhvSnVDTG9SZEFJK2VPc21sYTZuRWEvSjJISDJPUmpqUVJjOHM4V05FSnV6T2J2NWFhdXkyMzBleEIyakVrKzFrakFKZjBzUVNQa3hpdytYMjU2NVhJYy9UT0ZIV09SanpVU2NNaytXdEFJdVRGNzY1ZWJwcnBjUi84TVljY1k1R09OQkZ5U2p4STBRbTdNMnVmTFRVdGR6cU4vcExEajJmS3hSZ0l1dVhzTEdpRTNabXU3NWFhdFhPNmpmNFN3NDVueXNVWUNMcWw3Q1JvaE4yWnB2K1dtclYwTlJIOVBZY2V6NUdPTkJGd3l0eFkwUW03TXpuSExUVWU1V29qK0hzS09aOGpIR2dtNEpHNGxhSVRjbUpYemxwdU9kalVSL1MyRkhmZVdqelVTY01sckZUUkNic3hHUDh0Tm9iamFpUDRXd281N3lzY2FDYmlrZlNwb2hOeVloWDZYbTBKek5STDlGbUhIdmVSampRUmNzdDRWTkVKdXBEL09jbE9vcmxhaS80bXc0eDd5c1VZQ0xrbHJCWTJRRzZtUHU5d1V1cXVaNkw4ajdMaFdQdFpJd0NYbk8wRWo1RWJhOHl3M1hjWFZUdlRYQ0R1dWtZODFFbkJKZVNab2hOeEllZDdscHF1NUdvcitLMkhIdWZLeFJnSXVHVkhRQ0xtUjduV1dtNjdxYWluNk5XSEhPZkt4UmdJdUNWblFDTG1SNm5XWG02N3VhaXI2cGJEak8vbFlJd0VISHlFMzBtUjVKbURxdU5xSy9wTmF5K3RwUHlUd0VucElnbjE0QnN1dVN5RFZ6RHMxZGwxU0c5MThEZXlVRkF3Q0xRUk1pOWZVV3NzWnJQMEdza0VJQWhzVFNEWDFTdGdiSDNlOTdXcHdFM1FNQW5zU01HMWVxNzA5ejd6RTNpWFVCQm1Ed0pFRVRJZVZOWGprMlZPZWxXRGFsRGZqVWlNUlNEV1lhaEdEQUFRZ0FBRUlRQUFDRUlBQUJDQUFBUWhBQUFJUWdBQUVJQUFCQ0VBQUFoQ0FBQVFnQUFFSVFBQUNFSUFBQkNBQUFRaEFBQUlRZ0FBRUlBQUJDRUFBQWhDQUFBUWdBQUVJUUFBQ0VJQUFCQ0FBQVFoQUFBSVFnQUFFSUFBQkNFQUFBaENBQUFRZ0FBRUlRQUFDRUlBQUJDQUFBUWhBQUFJUWdBQUVJQUFCQ0VBQUFoQ0FBQVFnQUFFSVFBQUNFSUFBQkNBQUFRaEFBQUlRZ0FBRUlBQUJDRUFBQWhDQUFBUWdBQUVJUUFBQ0VJQUFCQ0FBQVFoQUFBSVFnQUFFSUFBQkNFQUFBaENBQUFRZ3NDV0Ivd004QVVpUW0xM04zd0FBQUFCSlJVNUVya0pnZ2c9PSIgaGVpZ2h0PSIyMDQiIHdpZHRoPSIyNDQiLz48Y2xpcFBhdGggaWQ9ImNsaXA0Ij48cmVjdCBoZWlnaHQ9IjM5MzcwMCIgd2lkdGg9IjUyMTI2MyIgeT0iMTI3NTU4IiB4PSIxMjI4MjkiLz48L2NsaXBQYXRoPjwvZGVmcz48ZyB0cmFuc2Zvcm09InRyYW5zbGF0ZSgtMTA0NiAtNjIwKSIgY2xpcC1wYXRoPSJ1cmwoI2NsaXAwKSI+PGcgY2xpcC1wYXRoPSJ1cmwoI2NsaXAxKSI+PGcgdHJhbnNmb3JtPSJtYXRyaXgoMC4wMDAxNTc0OCAwIDAgMC4wMDAxNTc0OCAxMDQ3IDYyMCkiIGNsaXAtcGF0aD0idXJsKCNjbGlwMikiPjxnIHRyYW5zZm9ybT0ibWF0cml4KDEuMDExMSAwIDAgMSAtMTI0MTkyIC0xMjc1NTgpIiBjbGlwLXBhdGg9InVybCgjY2xpcDQpIj48dXNlIHRyYW5zZm9ybT0ic2NhbGUoMzE0OS41NyAzMTQ5LjU3KSIgb3BhY2l0eT0iMSIgeGxpbms6aHJlZj0iI2ltZzMiIGhlaWdodD0iMTAwJSIgd2lkdGg9IjEwMCUiLz48L2c+PC9nPjwvZz48L2c+PC9zdmc+;clipPath=inset(0% 0% 0% 1.19%);points=[[0.02,0.63,0,0,0],[1,0.63,0,0,0]];" parent="1" vertex="1">
          <mxGeometry x="429.51" y="454.9999999999999" width="40.65" height="30.365060240963857" as="geometry" />
        </mxCell>
        <mxCell id="wdwd_AqZ2ZVo4Lx0RvvQ-42" style="edgeStyle=orthogonalEdgeStyle;rounded=0;orthogonalLoop=1;jettySize=auto;html=1;exitX=0.5;exitY=1;exitDx=0;exitDy=0;exitPerimeter=0;entryX=0.02;entryY=0.63;entryDx=0;entryDy=0;entryPerimeter=0;" parent="1" target="wdwd_AqZ2ZVo4Lx0RvvQ-36" edge="1">
          <mxGeometry relative="1" as="geometry">
            <mxPoint x="280" y="405" as="sourcePoint" />
            <Array as="points">
              <mxPoint x="300" y="405" />
              <mxPoint x="300" y="474" />
            </Array>
          </mxGeometry>
        </mxCell>
        <mxCell id="wdwd_AqZ2ZVo4Lx0RvvQ-44" style="edgeStyle=orthogonalEdgeStyle;rounded=0;orthogonalLoop=1;jettySize=auto;html=1;exitX=0.5;exitY=1;exitDx=0;exitDy=0;exitPerimeter=0;entryX=0;entryY=0.5;entryDx=0;entryDy=0;entryPerimeter=0;" parent="1" target="8LhANawI9LovUYU7yA3t-4" edge="1">
          <mxGeometry relative="1" as="geometry">
            <mxPoint x="278.48" y="405" as="sourcePoint" />
            <mxPoint x="330" y="334" as="targetPoint" />
            <Array as="points">
              <mxPoint x="279" y="406" />
              <mxPoint x="300" y="406" />
              <mxPoint x="300" y="333" />
            </Array>
          </mxGeometry>
        </mxCell>
        <mxCell id="wdwd_AqZ2ZVo4Lx0RvvQ-46" style="edgeStyle=orthogonalEdgeStyle;rounded=0;orthogonalLoop=1;jettySize=auto;html=1;exitX=1;exitY=0.63;exitDx=0;exitDy=0;exitPerimeter=0;entryX=0.02;entryY=0.63;entryDx=0;entryDy=0;entryPerimeter=0;" parent="1" source="wdwd_AqZ2ZVo4Lx0RvvQ-36" target="wdwd_AqZ2ZVo4Lx0RvvQ-37" edge="1">
          <mxGeometry relative="1" as="geometry" />
        </mxCell>
        <mxCell id="wdwd_AqZ2ZVo4Lx0RvvQ-51" value="300 L Tank (PVNT)" style="verticalLabelPosition=top;outlineConnect=0;align=center;dashed=0;html=1;verticalAlign=bottom;shape=mxgraph.pid2misc.column;columnType=common;points=[[0,0.5,0,0,0],[0.5,0,0,0,0],[0.5,1,0,0,0],[1,0.5,0,0,0]];labelPosition=center;" parent="1" vertex="1">
          <mxGeometry x="690" y="290" width="40" height="230" as="geometry" />
        </mxCell>
        <mxCell id="wdwd_AqZ2ZVo4Lx0RvvQ-53" style="edgeStyle=orthogonalEdgeStyle;rounded=0;orthogonalLoop=1;jettySize=auto;html=1;exitX=1;exitY=0.5;exitDx=0;exitDy=0;exitPerimeter=0;entryX=0.522;entryY=-0.009;entryDx=0;entryDy=0;entryPerimeter=0;" parent="1" source="8LhANawI9LovUYU7yA3t-4" edge="1">
          <mxGeometry relative="1" as="geometry">
            <mxPoint x="539.9100000000001" y="404.56000000000006" as="targetPoint" />
            <Array as="points">
              <mxPoint x="490" y="333" />
              <mxPoint x="490" y="405" />
            </Array>
            <mxPoint x="448.44479999999976" y="333.90239999999994" as="sourcePoint" />
          </mxGeometry>
        </mxCell>
        <mxCell id="wdwd_AqZ2ZVo4Lx0RvvQ-62" style="edgeStyle=orthogonalEdgeStyle;rounded=0;orthogonalLoop=1;jettySize=auto;html=1;exitX=0.5;exitY=1;exitDx=0;exitDy=0;exitPerimeter=0;entryX=0;entryY=0.5;entryDx=0;entryDy=0;entryPerimeter=0;" parent="1" target="wdwd_AqZ2ZVo4Lx0RvvQ-100" edge="1">
          <mxGeometry relative="1" as="geometry">
            <mxPoint x="280" y="405" as="sourcePoint" />
            <mxPoint x="301.0627999999999" y="270" as="targetPoint" />
            <Array as="points">
              <mxPoint x="300" y="406" />
              <mxPoint x="300" y="190" />
            </Array>
          </mxGeometry>
        </mxCell>
        <mxCell id="wdwd_AqZ2ZVo4Lx0RvvQ-68" value="PNP" style="ellipse;whiteSpace=wrap;html=1;aspect=fixed;points=[[0.5,1,0,0,0]];rotation=0;align=center;labelPosition=center;verticalLabelPosition=top;verticalAlign=bottom;" parent="1" vertex="1">
          <mxGeometry x="500" y="210" width="20" height="20" as="geometry" />
        </mxCell>
        <mxCell id="wdwd_AqZ2ZVo4Lx0RvvQ-81" style="edgeStyle=orthogonalEdgeStyle;rounded=0;orthogonalLoop=1;jettySize=auto;html=1;exitX=1;exitY=0.63;exitDx=0;exitDy=0;exitPerimeter=0;entryX=0.512;entryY=-0.046;entryDx=0;entryDy=0;entryPerimeter=0;" parent="1" source="wdwd_AqZ2ZVo4Lx0RvvQ-37" edge="1">
          <mxGeometry relative="1" as="geometry">
            <mxPoint x="539.1700000000003" y="404.76" as="targetPoint" />
            <Array as="points">
              <mxPoint x="490" y="474" />
              <mxPoint x="490" y="405" />
            </Array>
          </mxGeometry>
        </mxCell>
        <mxCell id="wdwd_AqZ2ZVo4Lx0RvvQ-82" style="edgeStyle=orthogonalEdgeStyle;rounded=0;orthogonalLoop=1;jettySize=auto;html=1;exitX=0.5;exitY=1;exitDx=0;exitDy=0;exitPerimeter=0;entryX=0;entryY=0.5;entryDx=0;entryDy=0;entryPerimeter=0;" parent="1" target="wdwd_AqZ2ZVo4Lx0RvvQ-51" edge="1">
          <mxGeometry relative="1" as="geometry">
            <mxPoint x="560.0900000000001" y="405" as="sourcePoint" />
          </mxGeometry>
        </mxCell>
        <mxCell id="8LhANawI9LovUYU7yA3t-9" style="edgeStyle=orthogonalEdgeStyle;rounded=0;orthogonalLoop=1;jettySize=auto;html=1;entryX=0;entryY=0.5;entryDx=0;entryDy=0;entryPerimeter=0;" edge="1" parent="1" source="wdwd_AqZ2ZVo4Lx0RvvQ-86" target="wdwd_AqZ2ZVo4Lx0RvvQ-101">
          <mxGeometry relative="1" as="geometry">
            <mxPoint x="310" y="390" as="targetPoint" />
            <Array as="points">
              <mxPoint x="300" y="405" />
              <mxPoint x="300" y="260" />
            </Array>
          </mxGeometry>
        </mxCell>
        <mxCell id="wdwd_AqZ2ZVo4Lx0RvvQ-86" value="PNP" style="ellipse;whiteSpace=wrap;html=1;aspect=fixed;points=[[0.5,1,0,0,0]];labelPosition=center;verticalLabelPosition=top;align=center;verticalAlign=bottom;" parent="1" vertex="1">
          <mxGeometry x="260" y="395" width="20" height="20" as="geometry" />
        </mxCell>
        <mxCell id="wdwd_AqZ2ZVo4Lx0RvvQ-87" value="PNP" style="ellipse;whiteSpace=wrap;html=1;aspect=fixed;points=[[0.5,1,0,0,0]];labelPosition=center;verticalLabelPosition=top;align=center;verticalAlign=bottom;" parent="1" vertex="1">
          <mxGeometry x="540" y="395.53" width="20" height="20" as="geometry" />
        </mxCell>
        <mxCell id="wdwd_AqZ2ZVo4Lx0RvvQ-90" value="PNT" style="ellipse;whiteSpace=wrap;html=1;aspect=fixed;points=[[0.5,1,0,0,0]];labelPosition=center;verticalLabelPosition=top;align=center;verticalAlign=bottom;" parent="1" vertex="1">
          <mxGeometry x="790" y="395" width="20" height="20" as="geometry" />
        </mxCell>
        <mxCell id="wdwd_AqZ2ZVo4Lx0RvvQ-93" style="edgeStyle=orthogonalEdgeStyle;rounded=0;orthogonalLoop=1;jettySize=auto;html=1;exitX=1;exitY=0.5;exitDx=0;exitDy=0;exitPerimeter=0;entryX=0.164;entryY=0.464;entryDx=0;entryDy=0;entryPerimeter=0;" parent="1" source="wdwd_AqZ2ZVo4Lx0RvvQ-51" target="wdwd_AqZ2ZVo4Lx0RvvQ-90" edge="1">
          <mxGeometry relative="1" as="geometry" />
        </mxCell>
        <mxCell id="wdwd_AqZ2ZVo4Lx0RvvQ-94" value="TNT" style="ellipse;whiteSpace=wrap;html=1;aspect=fixed;points=[[0.5,1,0,0,0]];labelPosition=center;verticalLabelPosition=bottom;align=center;verticalAlign=top;" parent="1" vertex="1">
          <mxGeometry x="790" y="435" width="20" height="20" as="geometry" />
        </mxCell>
        <mxCell id="wdwd_AqZ2ZVo4Lx0RvvQ-95" style="edgeStyle=orthogonalEdgeStyle;rounded=0;orthogonalLoop=1;jettySize=auto;html=1;exitX=1;exitY=0.5;exitDx=0;exitDy=0;exitPerimeter=0;entryX=-0.181;entryY=0.45;entryDx=0;entryDy=0;entryPerimeter=0;" parent="1" source="wdwd_AqZ2ZVo4Lx0RvvQ-51" target="wdwd_AqZ2ZVo4Lx0RvvQ-94" edge="1">
          <mxGeometry relative="1" as="geometry" />
        </mxCell>
        <mxCell id="wdwd_AqZ2ZVo4Lx0RvvQ-98" value="RVNV" style="shape=image;verticalLabelPosition=bottom;verticalAlign=top;imageAspect=0;aspect=fixed;image=data:image/svg+xml,PHN2ZyB4bWxuczp4bGluaz0iaHR0cDovL3d3dy53My5vcmcvMTk5OS94bGluayIgeG1sbnM9Imh0dHA6Ly93d3cudzMub3JnLzIwMDAvc3ZnIiBvdmVyZmxvdz0iaGlkZGVuIiB4bWw6c3BhY2U9InByZXNlcnZlIiBoZWlnaHQ9IjQ0IiB3aWR0aD0iODQiIHZpZXdCb3g9IjAgMCA4NCA0NCI+PGRlZnM+PGNsaXBQYXRoIGlkPSJjbGlwMCI+PHJlY3QgaGVpZ2h0PSI0NCIgd2lkdGg9Ijg0IiB5PSI2MzgiIHg9Ijc5NiIvPjwvY2xpcFBhdGg+PGNsaXBQYXRoIGlkPSJjbGlwMSI+PHJlY3QgaGVpZ2h0PSI0NCIgd2lkdGg9Ijg0IiB5PSI2MzgiIHg9Ijc5NiIvPjwvY2xpcFBhdGg+PGNsaXBQYXRoIGlkPSJjbGlwMiI+PHJlY3QgaGVpZ2h0PSIyNzMwNTAiIHdpZHRoPSI1MjcwNTAiIHk9Ii00LjY1NjYxZS0xMCIgeD0iMCIvPjwvY2xpcFBhdGg+PGltYWdlIGlkPSJpbWczIiBwcmVzZXJ2ZUFzcGVjdFJhdGlvPSJub25lIiB4bGluazpocmVmPSJkYXRhOmltYWdlL3BuZztiYXNlNjQsaVZCT1J3MEtHZ29BQUFBTlNVaEVVZ0FBQVBRQUFBQ2tDQVlBQUFDZ29RTUpBQUFBQVhOU1IwSUFyczRjNlFBQUFJUmxXRWxtVFUwQUtnQUFBQWdBQlFFU0FBTUFBQUFCQUFFQUFBRWFBQVVBQUFBQkFBQUFTZ0ViQUFVQUFBQUJBQUFBVWdFb0FBTUFBQUFCQUFJQUFJZHBBQVFBQUFBQkFBQUFXZ0FBQUFBQUFBQklBQUFBQVFBQUFFZ0FBQUFCQUFPZ0FRQURBQUFBQVFBQkFBQ2dBZ0FFQUFBQUFRQUFBUFNnQXdBRUFBQUFBUUFBQUtRQUFBQUFtRWtKREFBQUFBbHdTRmx6QUFBTEV3QUFDeE1CQUpxY0dBQUFESGhKUkVGVWVBSHRtQXQ2M0xZT1J0dTdzYklyQzdveXBTdnJCV3lUSmppWXNaNGpVanI0UGtZaXhBZHdnRCtPODhjZkdBUWdBQUVJUUFBQ0VJQUFCQ0FBQVFoQUFBSVFnQUFFSUFBQkNFQUFBaENBQUFRZ0FBRUlRQUFDRUlBQUJDQUFBUWhBQUFJUWdBQUVJQUFCQ0VBQUFoQ0FBQVFnQUFFSVFBQUNFSUFBQkNBQUFRaEFBQUlRZ0FBRUlBQUJDRUFBQWhDQUFBUWdBQUVJUUFBQ0VJQUFCQ0FBQVFoQUFBSVFnQUFFSUFBQkNFQUFBaENBQUFRZ0FBRUlRQUFDRUlBQUJDQUFBUWhBQUFJUWdBQUVJQUFCQ0VBQUFoQ0FBQVFnQUFFSVFBQUNFSUFBQkNBQUFRaEFBQUlRZ0FBRUlBQUJDRUFBQWhDQUFBUWdBSUhkQ2Z5bko4cnVwM0lnQkpZUkVGMXV2ZGkxL2RsMWRKL0IxUkQvVVpjTUVQT1JJYWJxY0h2L3E1cTNyL1k5MndpMXpySDI5QlFONWxjVkVCd3JHR3RlVGREdGtEVUhEYmduYWN3MnBxL1JjbGd5MXlPd0JRUkUxMFo4Rnh6QjBvaEFCRFg3Sk5vd3VDOXAvTlBYeUhudThSd2N5OXZDRjczcEZlKzNCWExWaTE3QnpkK3NDS05iMGdRbUhUbW52WitqOHprNmZwbkovdWc0TnAwL3d1OEQxdGh6YmRUZnNVVVQvRFUzU1YzMysydnR2OVg3bDZzOGZwYzNYbDRSRVAyNGhQMEltbm1WNytuZjNFOHFFWEZ6alM2YXkrbFJ6d3NnNmJJby90bzM2UnBiWndQYmo0RG9VVFhuaC9jbnZiWmZCRGM5eVlIKzc4dWV3SFpybFpkMHpxeU5OODhualR0MUh2dW80WWtHbmptSFQrdXRiTUhhVWZQdUptNEhQWVBPejRHRkxVR3pJT1RqMmk3aTdYcXJGbkx1cjZCR3gwVjRrNU1kOUF5NmZRNG9iSmVYMWxKdVVzOTNwMmxjVzladUhnazU5MWV3OTkzeFgrNCtCeitEZnZZY1JOaENveHplcHhGajEwdXZoSno3aXpydFh5ZFhoQXo2cDJmbndtNmJ6ZWJZUGdSRWozRTkwODduQ0RuM1Y3dFg1OWhHQXE0NEdmVGNaNmZDVHNxa3ptdmF5SWp0bjcreTFFd2YzcGNJT2ZkWFV5YzdFOXRJd0JVbWcxNzY3RXpZU1puVWVVMGJHZDE1dXpRc2E2NGY3MnVFblBzck9Qdk9ySGZKM1JVb2cxNzc3RWpZTGk4bGxYYWhkWjlEUkZOdEdicjVGaUhuL2dydXVBL2hnekoxUmNxZ3R6NDdFUGJVTkl2TnNaOEppQzV4UGRITzl4Qnk3cS8yYkoxakd3bTQ0bVhRZXoxUEZIWlNMaTQzblpzUGl3bUl1bHRlYnI2bmtITi9CWGZHMGVHZFRjQVZMWVBlKzNtU3NLZWdZZEpzTXZkWUtKcW02NEYyZm9TUWMzKzFkK2tjMjBqQUZUT0RQdXA1Z3JCZGZzcktSSTRkOUwvV1MvdEdDOUhXaDlwc0pPQ0FMaTNJMnZWdkZMWUVUWE5uVVVjOFhBOGMrUk81N1plZ051ckN0aEJ3eFd5Qkh6MS9rN0JGQWJrOGRXNitPNWxvc2kwRE4zK25rSE5mQlRIZHFTYUg1T3FLbWtHLysva0dZVTlCODhnaFJQczYxSEowTlc3blp3ZzU5MWNiaTg2eGpRUmNzVFBvczU0SEMvdE9vaGJ0QzFmYmRuNm1rSE4vdFRIcEhOdEl3QlU5Z3o3N2VhQ3dyeTVxMFg1d05XM25QUWc1OTFjYm04NnhqUVJjOFRQb1hwNEhDRHNwTDVmejExejBPYktKQmgvbFZYdzlDVG4zVnhEenlEWG9JdlpTY0lQYnErMHM3R1M1QmtQVU41cUpCaHpsVW53OUNqbjNXUkQ3YVB5N2k3Y1UzdUQyYmpzS08xbSt3UkQxaldDaVFVYnhGMS9QUXM1OUZ1UXdBdnV1WXl3TllIQkhzWjJFblN6bllJajZlalhSd0tLWWkyOEVJZWMrQzNMcGxmc3djWlZHTUxpajJRN0NUcFozTUVSOVBabG9NRkdjeFRlU2tIT2ZCVG4xeEh6SVdFcERHTnhSYmFPd2srVWVERkhmMlNZYVFCUmI4WTBvNU54blFXNW44eDcrL3RJWUJuZDAyeURzWlBrSFE5UjNob2xlR3NWVGZDTUxPZmRaa09NWnJDOTFaMmtRZzNzVld5bnNaQXlDSWVwN2w0bGVGTVZRZkZjUWN1NnpJTmQzY2I3c1BhVlJETzdWYklXd2szRUlocWp2U0JNOVBMcTMrSzRrNU54blFjNUhNcjdGMmFWaERPNVZiYUd3azdFSWhxaHZieE05TUxxcitLNG81TnhuUWU1Nzg3M2RlYVZ4RE83VmJZR3drL0VJaHFodkR4TTlKRHEvK0s0czVOeG5BWU05Mk43NmpOSkFCdmN1TmxQWVU5Qnd4a3QwckRYUmpZNTVPNytEa0hPZnRibnJITnRJd0RWWEJuMlg1MHhoTzBiS2U0Mm81V3RmZE5hSDcwNUN6djBWTUZFWHRvV0FhN0FNK203UGxjS1dHZUJ0aldQY3p1OG81TnhmTFF1ZFl4c0p1R2JMb08vNlhDRnNlY0xmL0k1dE83K3prSE4vdFV4MGptMGs0Sm91Zzc3N2M2R3dwYXFCdlR1bTdSd2hmM2RYeTBibjJFWUNydm0rVWZObUJCWUllOUk2T0pidEhDRS85bFRMYUdNdnM3MEYrb2djanhGWUlPd0hVU1BrNXozVTloK0szRTdBTmVCejlId3hBa3VFalpCLzdwblJCUDIvN1hyakJBaEFBQUx6Q2ZBVCt1Y2ZKSXQrTWl0Nng1U2YxTThCdDZ6bXR5MHJueEZ3emZjYy9UMi96UHduOWhRMHB1TnEzeEgyWXc4RjNKNzFLZjZaQkZ6alBTSy9wMmVta0tWaW5QVGRzWHcyUjlqZlBSVXdVaGUyaFlCcndtL1U5M3hiSWVTYWZkS0o0L2xxanJEL2kxalZQSGxmUWNCQnZhZU1aLy92dGN6Z20zU05ZL3JUL003Q0R0aW9DOXRDd0RYZjNRUzk4U2Z5TSs1SlB6aXVjK1ozRkhiQVJWM1lGZ0t1OGU0aTZJT0VYTmNoNmNTeG5UdS9rN0FESnVyQ3RoQndUWGQxUWI5QnlIVXRrazRjMzYrNTZOTkc5SzM0N2lEc2dJRzZzQzBFU2dQcElaZlY4NXVGWE5jakdkZGdpUHJNUkVmMHZmaXVMT3dnZDNWaFd3aVV4dEZETGlmb0U0VmMxeVFaMjJDSStyS0p2a1JyaXUrS3dnNXl6ang0cmlSUUdzYmdYc1U2RVhKZGttUjhneUhxcTAxMEVxMHJ2aXNKTzhpMVpzSDdDZ0tsVVF6dTZOYWhrT3VTSkdNY0RGRmZhNktPYUczeFhVSFlRWTR0QitZTENaUUdNYmlqV3VkQ3JrdVNqSE13UkgyUmlUcWo5Y1Uzc3JDRDNDSUcrQllRS0kxaGNFZXpnWVJjbHlRWjYyQ0krcDZaNklkb1QvR05LT3dncDJmNTQ1OUpvRFNFd1IzRkJoVnlYWkprdklNaDZudGxvaCtqZmNVM2tyQ0RYRjdsenJjWkJFb2pHTnplN1FKQ3JrdVNqSGt3UkgwL21laUNhRy94alNEc0lJZWY4dWI3RHdSS0F4amNYdTFpUXE1TGtveDdNRVI5YzB4MFViUy8rSG9XZGhEN25KeFo4NEpBS2J6QjdjMHVMT1M2Sk1uWUIwUFVOOWRFRjBabkZGK1B3ZzVpbnBzdjY1NFFLQVUzdUwzWVRZUmNseVFaLzJDSStwYVk2T0xvbk9MclNkaEJyRXR5WlcxQW9CVGE0SjV0TnhSeVhaSmtOUWlHK1plYTZJYm9yT0xyUWRoQmpFdnpaSDFEb0JUWTRKNWxOeGR5WFpKa2RRaUcrZGVZNktib3ZPSTdVOWhCYkd0eVpFOUZvQlRXNEw3YkVISlZpZS9YWkxVSXh2ZUs1VzhTbk9mdU9FUFlRVXpMTTJPSEkrQ0sraTVCSTJSWGcyZ2k2blMxMGZrVUxWem9FMTNmbnV2bTd4UjJFTXZDZEZqZUVuREZQRnJRQ0xuRi8zSXUrdFhWUitkSnh4NG1la2g3dHB1L1E5aEJESHZrZHVzelhCR1BFalJDWHQxam9qdnJHazJyVDRvM3R1ZlhkMzI4SHluc0pqZTdEOXRJd0JWd2IwRWo1STNWK2R6dWFxUXUyZVZVZjRpZDJkN2o1a2NJTzdqVFI4VnNNUUZYdEwwRWpaQVgxK0hWQnRHUHJrNnZGbS84RnQzbDd0NVQyRy9NYXlPV2NiYTdZbTBWTkVJK3JQQ3VUbnBMT3V5bXo0TkZIKzJkYnI2SHNJTTdQbS9uejlVRVhKSFdDaG9ocitZL2QrT2tDK3RheWR5Tkc5ZlpQZlc5RCs5YmhCMmN2VEZjdHJzQ0xSVTBRbjViQXlXOXFhN1Y5TGFiUHkrUzV2NDZsby8zTmNJT3p2eThqVDlYRTNDRm1TdG9oTHlhOTlxTlNUZld0WnJXSHJSeG56UngxREY5dkM4UmRuRFd4dkRZN2dyeWs2QVI4bWtOSTNwelhTdWJuMm1pbDlmeFBMelBFWFp3eHBrNVhlSnVWNGhuZ2tiSXA5WmE5SFpYcDFPajhaZEhzYmxZWHdtNzQ3eDhsZ1BOSFB4VzBBajUxRW9tdlgzUzRXcWtjOUhSbTRrRzFNYnA1cEd3Z3oyOTVUVmNQQTU2RmpSQ1ByV09TVytmZExqYVZITjk3ZFpFSTNzVzk0ZS9GbmF3dHR2RVJnbk13VWZJcDVRdDZhMDJKaDJ1SHNGYzFEZUNpUWI1TXBjbnZkWjFibjkySGQxbmNBWjlydjJqQzJYdTRwdXZTMC95Ti85Zlg5L3NmYTc5MW9WL3oxM2MwVHJSV0g0dGlHY0V6U3hJNS8xTFgvNHRxdUhZZDNsL1dNUGRPSWZqbWpXVGtrakQwWGdNV05RMUovL0huWGdXRVhnRldSYWRkTy9GcnpndS9UWXBTaHZwZ2toRmMzckY0NElwdnplbENLNUJ4NVlSaURqTzlVMTZsWTMwTmZSeGVSUE5NT0xUZGVJai9ENWdVTFB4TzNJbXNmeFpjL3o5WXZ1LytxMytYcisvMkhiWlQ2S1ovYXF5RzBFelZiajl2Vm9qU245aEVkSE5DRmdQMW44cDNpeDkwb1VBQkNBQUFRaEFBQUlRZ0FBRUlBQUJDRUFBQWhDQUFBUWdBQUVJUUFBQ0VJQUFCQ0FBQVFoQUFBSVFnQUFFSUFBQkNFQUFBaENBQUFRZ0FBRUlRQUFDRUlBQUJDQUFBUWhBQUFJUWdBQUVJQUFCQ0VBQUFoQ0FBQVFnQUFFSVFBQUNFSUFBQkNBQUFRaEFBQUlRZ0FBRUlBQUJDRUFBQWhDQUFBUWdBQUVJUUFBQ0VJQUFCQ0FBQVFoQUFBSVFnQUFFSUFBQkNFQUFBaENBQUFRZ0FBRUlRQUFDRUlBQUJDQUFBUWhBQUFJUWdBQUVJQUFCQ0VBQUFoQ0FBQVFnQUFFSVFBQUNFSUFBQkE0aThIL1BKM3RrelR2bVV3QUFBQUJKUlU1RXJrSmdnZz09IiBoZWlnaHQ9IjE2NCIgd2lkdGg9IjI0NCIvPjxjbGlwUGF0aCBpZD0iY2xpcDQiPjxwYXRoIGNsaXAtcnVsZT0iZXZlbm9kZCIgZmlsbC1ydWxlPSJldmVub2RkIiBkPSJNMTMxMzYwIDEyODE1NyA2NTg0MTAgMTI4MTU3IDY1ODQxMCA0MDA0OTcgMTMxMzYwIDQwMDQ5N1oiLz48L2NsaXBQYXRoPjwvZGVmcz48ZyB0cmFuc2Zvcm09InRyYW5zbGF0ZSgtNzk2IC02MzgpIiBjbGlwLXBhdGg9InVybCgjY2xpcDApIj48ZyBjbGlwLXBhdGg9InVybCgjY2xpcDEpIj48ZyB0cmFuc2Zvcm09Im1hdHJpeCgwLjAwMDE1NzQ4IDAgMCAwLjAwMDE1NzQ4IDc5NyA2MzkpIiBjbGlwLXBhdGg9InVybCgjY2xpcDIpIj48ZyB0cmFuc2Zvcm09Im1hdHJpeCgxIDAgMCAxLjAwMjYxIC0xMzEzNjAgLTEyODQ5MSkiIGNsaXAtcGF0aD0idXJsKCNjbGlwNCkiPjx1c2UgdHJhbnNmb3JtPSJzY2FsZSgzMjAzLjk1IDMyMDMuOTUpIiBvcGFjaXR5PSIxIiB4bGluazpocmVmPSIjaW1nMyIgaGVpZ2h0PSIxMDAlIiB3aWR0aD0iMTAwJSIvPjwvZz48L2c+PC9nPjwvZz48L3N2Zz4=;points=[[0.02,0.5,0,0,0],[0.97,0.5,0,0,0]];" parent="1" vertex="1">
          <mxGeometry x="780.23" y="560" width="40.09" height="21" as="geometry" />
        </mxCell>
        <mxCell id="8LhANawI9LovUYU7yA3t-15" style="edgeStyle=orthogonalEdgeStyle;rounded=0;orthogonalLoop=1;jettySize=auto;html=1;exitX=1;exitY=0.5;exitDx=0;exitDy=0;exitPerimeter=0;" edge="1" parent="1" source="wdwd_AqZ2ZVo4Lx0RvvQ-100">
          <mxGeometry relative="1" as="geometry">
            <mxPoint x="500.0000000000001" y="220" as="targetPoint" />
            <Array as="points">
              <mxPoint x="460" y="190" />
              <mxPoint x="460" y="220" />
            </Array>
          </mxGeometry>
        </mxCell>
        <mxCell id="wdwd_AqZ2ZVo4Lx0RvvQ-100" value="ORNV-1" style="shape=image;verticalLabelPosition=top;verticalAlign=bottom;imageAspect=0;aspect=fixed;image=data:image/svg+xml,PHN2ZyB4bWxuczp4bGluaz0iaHR0cDovL3d3dy53My5vcmcvMTk5OS94bGluayIgeG1sbnM9Imh0dHA6Ly93d3cudzMub3JnLzIwMDAvc3ZnIiBvdmVyZmxvdz0iaGlkZGVuIiB4bWw6c3BhY2U9InByZXNlcnZlIiBoZWlnaHQ9IjQ0IiB3aWR0aD0iODIiIHZpZXdCb3g9IjAgMCA4MiA0NCI+PGRlZnM+PGNsaXBQYXRoIGlkPSJjbGlwMCI+PHJlY3QgaGVpZ2h0PSIyNjY3MDAiIHdpZHRoPSI1MTQzNTAiIHk9IjAiIHg9IjAiLz48L2NsaXBQYXRoPjxpbWFnZSBpZD0iaW1nMSIgcHJlc2VydmVBc3BlY3RSYXRpbz0ibm9uZSIgeGxpbms6aHJlZj0iZGF0YTppbWFnZS9wbmc7YmFzZTY0LGlWQk9SdzBLR2dvQUFBQU5TVWhFVWdBQUFQUUFBQUNrQ0FZQUFBQ2dvUU1KQUFBQUFYTlNSMElBcnM0YzZRQUFBSVJsV0VsbVRVMEFLZ0FBQUFnQUJRRVNBQU1BQUFBQkFBRUFBQUVhQUFVQUFBQUJBQUFBU2dFYkFBVUFBQUFCQUFBQVVnRW9BQU1BQUFBQkFBSUFBSWRwQUFRQUFBQUJBQUFBV2dBQUFBQUFBQUJJQUFBQUFRQUFBRWdBQUFBQkFBT2dBUUFEQUFBQUFRQUJBQUNnQWdBRUFBQUFBUUFBQVBTZ0F3QUVBQUFBQVFBQUFLUUFBQUFBbUVrSkRBQUFBQWx3U0ZsekFBQUxFd0FBQ3hNQkFKcWNHQUFBQjI5SlJFRlVlQUh0MWd1TzQ4WU9CZEFKc3JCd0tXOG5xYXhzbkoyOG5TUzhIUlVnT1A0b2J0bnV0ZzhCdXZSaGxhUWpjWHArL0JBRUNCQWdRSUFBQVFJRUNCQWdRSUFBQVFJRUNCQWdRSUFBQVFJRUNCQWdRSUFBQVFJRUNCQWdRSUFBQVFJRUNCQWdRSUFBQVFJRUNCQWdRSUFBQVFJRUNCQWdRSUFBQVFJRUNCQWdRSUFBQVFJRUNCQWdRSUFBQVFJRUNCQWdRSUFBQVFJRUNCQWdRSUFBQVFJRUNCQWdRSUFBQVFJRUNCQWdRSUFBQVFJRUNCQWdRSUFBQVFJRUNCQWdRSUFBQVFJRUNCQWdRSUFBQVFJRUNCQWdRSUFBQVFJRUNCQWdRSURBc3dSK2ZkYUZiN2p1NkRuVmVlZ1VCQjRoVUgyUi95MFgrdjh5R25ZU0dMM09YMHRtdXpvRmdYc0lWQy82czNOK2I5a1dPd3FNWG12aXJzY2NUd29DZXdoVUw1TG1YWDlqY3p2bnhFNENvOWVac09mRzFBZ0N0d2hVVC9yWmVlN2J5dkdjRnpzS2pGN3JFdmc4bHpwQjRKcEFkY0hvbk4vTnVmRm4xMVNudUpQQTZIV1Q1MTdBUEo2YTZoUUUxZ0xWTzJuUytaMmNHMU9UV3ZFZ2dlcnJqTTV6TDJRZVQwMVN2TGRBOWVPblNlZDNjVzVNVFdyRkV3VkdYL3ZjQzFvZlQ1MTRMNEhxeDAyVHJyK0RVOXVqYTZwVGZDR0IwZmR5Nm1VZEgwdGRVcnltUVBWai9ldzhmdS9IKzZsSnJmamlBcVB2TDNuOEFrL3R6OW91Rjk5WW9QcmUwNkNuM3ZIeHNkU2xYbnd6Z2VyN0haM0hML1RjZm1xVDRuc0lWTjltbXZQYyt6dytudHJNRVM4Z01Qb1pqbC93cGYzVUo4WFhFcWkrblRUbXBYZTNQcGZhMFZtZDRnVUZxcDlwZEs1ZityWHQxQ2ZGY3dTcUw1dkd2UGFlNXZuVUpxdFR2SkZBOWJPT3p2a2hiQmxUbnhUM0ZhaGVQazI1NVoya0pyWEo2aFFFUGo2RTBRNWJQNkQ1RVdWT1V0d3VVRDAxT1p0eTZ6dVk5WmtyQ0p3VnFENHpPcmQrV091NnpFdFdwemd0VUgwNE9SdHk3WGR0ZTg3SmZFSGdQd3RVenhpZDF6NjBjK2Z6QVdaKzhoMmorcUdUc3hIUE9WMDZQdWRtSFVGZ040SHFsVWJucFk5dnk3bXNrYXpPVjR2cUIwck9KdHppY2FwbXpzOWFZcVBBTHh2cmxKMFdHTXZoMzNxc1pmc3p3NkVuLzdsYUlQdUp3OGZ2ODM5cXVZVTU1cmxuMU55NGNUejB2RHg3eHFTNFFVQkQzNEIyWVVyMXVXVGk5MytHM1g4UHZlS3BwdC9yUXJVc3RHZXpIdC9iWVRud3h6TE8vV1hYY0t1QWhyNVZidnU4c1pUdTlWZDgrNVcvVHVXaGJ5WC9DR1ZNaWpzSmFPZzd3VjVZdHZwY012R0tUWDc0ZUxJZlAvejFYU0FlT1dqb1IycGZ2MVoxU1hMRy9HOXZ6UU5QSGcvTDlmUFhObkg0K1Azblo3MjlPbXp6a1FJYStwSGErMXlyZXBua2pObjBjLyt6bzJiOXJLRDVCQWdRSUVDQUFBRUNCQWdRSUVDQUFBRUNCQWdRSUVDQUFBRUNCQWdRSUVDQUFBRUNCQWdRSUVDQUFBRUNCQWdRSUVDQUFBRUNCQWdRSUVDQUFBRUNCQWdRSUVDQUFBRUNCQWdRSUVDQUFBRUNCQWdRSUVDQUFBRUNCQWdRSUVDQUFBRUNCQWdRSUVDQUFBRUNCQWdRSUVDQUFBRUNCQWdRSUVDQUFBRUNCQWdRSUVDQUFBRUNCQWdRSUVDQUFBRUNCQWdRSUVDQUFJRVhFL2pseFo3bjFSK25WZzg0dDM5YkhkdGo4OC9WSW9mZVRvcHZJcUNodjg2THF0V3R6TzNackhOL1ZmS1V6Y055VlUzL0ZQN3JGOVhRMTQzMnJxaGx3ZCtYY2U0dnU5OStPUFFUekliUGRsSThTRUJEM3grNitoTEovTFhOK0k1eDZJZWVUVDdlRWVCUno2eWg5NVd1WmJsNy9mVTlyRzUzTnNqNjJPcjB6WnUxbW5uUGY0VCtXSzV6NkRFcGRoRFEwSjlEcko2ZTNPUERQL1E2TTQ2YjlUQlBQSG1zNWZwenpPNGV6NTUxRHAzenVVZHZDd0ozRjZpK3dzOGwvK3J4bHB6enMxYnkxYUw2Z2NhU3QvaXM1MlNkNmhRRWRoT29YbWsyNGZwajI3bzk1MmFkNUR2RzZJZE94bUtyMjNGZDVsZW5JUENmQmFwbnpFWTgvckF1N2M4NW1aOFVwd1dxRDQ4bEwzbWVPNWU1MVNrSW5CV29Qak1iOHR5SGRIeDgxbWR1VXR3dU1IcHFNcWJIenBmMk02YzZCWUdQRDJFMjVhV1BabjB1OWNYdTdnS2pyNUJjMjEvYlRuMTFpamNTcUg3V05HWHkyZ2N5ejZlMk9zVnpCRVpmTmpuZng1WXg5ZFVwWGxDZytwbEdaeHB6eThlUW10UldwL2hhQXFOdko3bjFQYVl1OWVJRkJLcWZJWTI1OWVXbk5uUEU5eEFZZlp2SnJlODN0ZFVwdnBsQTlmMXViV1JOL00xZTdwbmJIWDA4dWFXNVoyMlhpNjhzVUgxeld4cFpFMy9sdC9qNWV4dTlSSEpyYzNlcCtDb0MxVGN5T3ErOVBFM2NTRzhZbzUvNTJyZVI4NmtUVHhTb3ZuYWE5TnJMU2sxcXhYc0xqSDc4NUxYdkpUWFZLUjRrVUgwZGpmd2c3QmU4VEw2ZjBibWxzVk1uN2lSUXZlNldSaDVkbDFwQjRKckE2SUpyalozenFSTTdDbHhyNUp5dkhhOW5xZmNTR1AyNDF4bzdOV0luZ2VwMVRvRnI1SjJBTGZNaE1QbzNlZXBieTNHeG8wQ2FkMEpyNUIxaExmVXZnZW9qbzNOK2I5a1dPd3RVcnpjNk13b0NqeElZZmFHa0lFQ0FBQUVDQkFnUUlFQ0FBQUVDQkFnUUlFQ0FBQUVDQkFnUUlFQ0FBQUVDQkFnUUlFQ0FBQUVDQkFnUUlFQ0FBQUVDQkFnUUlFQ0FBQUVDQkFnUUlFQ0FBQUVDQkFnUUlFQ0FBQUVDQkFnUUlFQ0FBQUVDQkFnUUlFQ0FBQUVDQkFnUUlFQ0FBQUVDQkFnUUlFQ0FBQUVDQkFnUUlFQ0FBQUVDQkFnUUlFQ0FBQUVDQkFnUUlFQ0FBQUVDQkFnUUlFQ0FBQUVDQkFnUUlFQ0FBQUVDQkFnUUlFQ0FBQUVDQkFoY0ZQZ2JoSVU2OFoxb0dia0FBQUFBU1VWT1JLNUNZSUk9IiBoZWlnaHQ9IjE2NCIgd2lkdGg9IjI0NCIvPjxjbGlwUGF0aCBpZD0iY2xpcDIiPjxwYXRoIGNsaXAtcnVsZT0iZXZlbm9kZCIgZmlsbC1ydWxlPSJldmVub2RkIiBkPSJNMTMzMzUwIDEzMDk2NyA2NDc3MDAgMTMwOTY3IDY0NzcwMCAzOTQ0OTUgMTMzMzUwIDM5NDQ5NVoiLz48L2NsaXBQYXRoPjwvZGVmcz48ZyB0cmFuc2Zvcm09InRyYW5zbGF0ZSgtMTQ3MCAtMzkyKSI+PGc+PGcgdHJhbnNmb3JtPSJtYXRyaXgoMC4wMDAxNTc0OCAwIDAgMC4wMDAxNTc0OCAxNDcwIDM5MykiIGNsaXAtcGF0aD0idXJsKCNjbGlwMCkiPjxnIHRyYW5zZm9ybT0ibWF0cml4KDEgMCAwIDEuMDEyMDQgLTEzMzM1MCAtMTMyNTQ0KSIgY2xpcC1wYXRoPSJ1cmwoI2NsaXAyKSI+PHVzZSB0cmFuc2Zvcm09InNjYWxlKDMxNzUuMDIgMzE3NS4wMikiIG9wYWNpdHk9IjEiIHhsaW5rOmhyZWY9IiNpbWcxIiBoZWlnaHQ9IjEwMCUiIHdpZHRoPSIxMDAlIi8+PC9nPjwvZz48L2c+PC9nPjwvc3ZnPg==;clipPath=inset(2.27% 3.66% 4.55% 0%);points=[[0,0.5,0,0,0],[1,0.5,0,0,0]];labelPosition=center;align=center;" parent="1" vertex="1">
          <mxGeometry x="384.9999999999999" y="180" width="39.51" height="20.50518987341772" as="geometry" />
        </mxCell>
        <mxCell id="wdwd_AqZ2ZVo4Lx0RvvQ-101" value="ORNV-2" style="shape=image;verticalLabelPosition=bottom;verticalAlign=top;imageAspect=0;aspect=fixed;image=data:image/svg+xml,PHN2ZyB4bWxuczp4bGluaz0iaHR0cDovL3d3dy53My5vcmcvMTk5OS94bGluayIgeG1sbnM9Imh0dHA6Ly93d3cudzMub3JnLzIwMDAvc3ZnIiBvdmVyZmxvdz0iaGlkZGVuIiB4bWw6c3BhY2U9InByZXNlcnZlIiBoZWlnaHQ9IjQ0IiB3aWR0aD0iODIiIHZpZXdCb3g9IjAgMCA4MiA0NCI+PGRlZnM+PGNsaXBQYXRoIGlkPSJjbGlwMCI+PHJlY3QgaGVpZ2h0PSIyNjY3MDAiIHdpZHRoPSI1MTQzNTAiIHk9IjAiIHg9IjAiLz48L2NsaXBQYXRoPjxpbWFnZSBpZD0iaW1nMSIgcHJlc2VydmVBc3BlY3RSYXRpbz0ibm9uZSIgeGxpbms6aHJlZj0iZGF0YTppbWFnZS9wbmc7YmFzZTY0LGlWQk9SdzBLR2dvQUFBQU5TVWhFVWdBQUFQUUFBQUNrQ0FZQUFBQ2dvUU1KQUFBQUFYTlNSMElBcnM0YzZRQUFBSVJsV0VsbVRVMEFLZ0FBQUFnQUJRRVNBQU1BQUFBQkFBRUFBQUVhQUFVQUFBQUJBQUFBU2dFYkFBVUFBQUFCQUFBQVVnRW9BQU1BQUFBQkFBSUFBSWRwQUFRQUFBQUJBQUFBV2dBQUFBQUFBQUJJQUFBQUFRQUFBRWdBQUFBQkFBT2dBUUFEQUFBQUFRQUJBQUNnQWdBRUFBQUFBUUFBQVBTZ0F3QUVBQUFBQVFBQUFLUUFBQUFBbUVrSkRBQUFBQWx3U0ZsekFBQUxFd0FBQ3hNQkFKcWNHQUFBQjI5SlJFRlVlQUh0MWd1TzQ4WU9CZEFKc3JCd0tXOG5xYXhzbkoyOG5TUzhIUlVnT1A0b2J0bnV0ZzhCdXZSaGxhUWpjWHArL0JBRUNCQWdRSUFBQVFJRUNCQWdRSUFBQVFJRUNCQWdRSUFBQVFJRUNCQWdRSUFBQVFJRUNCQWdRSUFBQVFJRUNCQWdRSUFBQVFJRUNCQWdRSUFBQVFJRUNCQWdRSUFBQVFJRUNCQWdRSUFBQVFJRUNCQWdRSUFBQVFJRUNCQWdRSUFBQVFJRUNCQWdRSUFBQVFJRUNCQWdRSUFBQVFJRUNCQWdRSUFBQVFJRUNCQWdRSUFBQVFJRUNCQWdRSUFBQVFJRUNCQWdRSUFBQVFJRUNCQWdRSUFBQVFJRUNCQWdRSURBc3dSK2ZkYUZiN2p1NkRuVmVlZ1VCQjRoVUgyUi95MFgrdjh5R25ZU0dMM09YMHRtdXpvRmdYc0lWQy82czNOK2I5a1dPd3FNWG12aXJzY2NUd29DZXdoVUw1TG1YWDlqY3p2bnhFNENvOWVac09mRzFBZ0N0d2hVVC9yWmVlN2J5dkdjRnpzS2pGN3JFdmc4bHpwQjRKcEFkY0hvbk4vTnVmRm4xMVNudUpQQTZIV1Q1MTdBUEo2YTZoUUUxZ0xWTzJuUytaMmNHMU9UV3ZFZ2dlcnJqTTV6TDJRZVQwMVN2TGRBOWVPblNlZDNjVzVNVFdyRkV3VkdYL3ZjQzFvZlQ1MTRMNEhxeDAyVHJyK0RVOXVqYTZwVGZDR0IwZmR5Nm1VZEgwdGRVcnltUVBWai9ldzhmdS9IKzZsSnJmamlBcVB2TDNuOEFrL3R6OW91Rjk5WW9QcmUwNkNuM3ZIeHNkU2xYbnd6Z2VyN0haM0hML1RjZm1xVDRuc0lWTjltbXZQYyt6dytudHJNRVM4Z01Qb1pqbC93cGYzVUo4WFhFcWkrblRUbXBYZTNQcGZhMFZtZDRnVUZxcDlwZEs1ZityWHQxQ2ZGY3dTcUw1dkd2UGFlNXZuVUpxdFR2SkZBOWJPT3p2a2hiQmxUbnhUM0ZhaGVQazI1NVoya0pyWEo2aFFFUGo2RTBRNWJQNkQ1RVdWT1V0d3VVRDAxT1p0eTZ6dVk5WmtyQ0p3VnFENHpPcmQrV091NnpFdFdwemd0VUgwNE9SdHk3WGR0ZTg3SmZFSGdQd3RVenhpZDF6NjBjK2Z6QVdaKzhoMmorcUdUc3hIUE9WMDZQdWRtSFVGZ040SHFsVWJucFk5dnk3bXNrYXpPVjR2cUIwck9KdHppY2FwbXpzOWFZcVBBTHh2cmxKMFdHTXZoMzNxc1pmc3p3NkVuLzdsYUlQdUp3OGZ2ODM5cXVZVTU1cmxuMU55NGNUejB2RHg3eHFTNFFVQkQzNEIyWVVyMXVXVGk5MytHM1g4UHZlS3BwdC9yUXJVc3RHZXpIdC9iWVRud3h6TE8vV1hYY0t1QWhyNVZidnU4c1pUdTlWZDgrNVcvVHVXaGJ5WC9DR1ZNaWpzSmFPZzd3VjVZdHZwY012R0tUWDc0ZUxJZlAvejFYU0FlT1dqb1IycGZ2MVoxU1hMRy9HOXZ6UU5QSGcvTDlmUFhObkg0K1Azblo3MjlPbXp6a1FJYStwSGErMXlyZXBua2pObjBjLyt6bzJiOXJLRDVCQWdRSUVDQUFBRUNCQWdRSUVDQUFBRUNCQWdRSUVDQUFBRUNCQWdRSUVDQUFBRUNCQWdRSUVDQUFBRUNCQWdRSUVDQUFBRUNCQWdRSUVDQUFBRUNCQWdRSUVDQUFBRUNCQWdRSUVDQUFBRUNCQWdRSUVDQUFBRUNCQWdRSUVDQUFBRUNCQWdRSUVDQUFBRUNCQWdRSUVDQUFBRUNCQWdRSUVDQUFBRUNCQWdRSUVDQUFBRUNCQWdRSUVDQUFBRUNCQWdRSUVDQUFJRVhFL2pseFo3bjFSK25WZzg0dDM5YkhkdGo4OC9WSW9mZVRvcHZJcUNodjg2THF0V3R6TzNackhOL1ZmS1V6Y055VlUzL0ZQN3JGOVhRMTQzMnJxaGx3ZCtYY2U0dnU5OStPUFFUekliUGRsSThTRUJEM3grNitoTEovTFhOK0k1eDZJZWVUVDdlRWVCUno2eWg5NVd1WmJsNy9mVTlyRzUzTnNqNjJPcjB6WnUxbW5uUGY0VCtXSzV6NkRFcGRoRFEwSjlEcko2ZTNPUERQL1E2TTQ2YjlUQlBQSG1zNWZwenpPNGV6NTUxRHAzenVVZHZDd0ozRjZpK3dzOGwvK3J4bHB6enMxYnkxYUw2Z2NhU3QvaXM1MlNkNmhRRWRoT29YbWsyNGZwajI3bzk1MmFkNUR2RzZJZE94bUtyMjNGZDVsZW5JUENmQmFwbnpFWTgvckF1N2M4NW1aOFVwd1dxRDQ4bEwzbWVPNWU1MVNrSW5CV29Qak1iOHR5SGRIeDgxbWR1VXR3dU1IcHFNcWJIenBmMk02YzZCWUdQRDJFMjVhV1BabjB1OWNYdTdnS2pyNUJjMjEvYlRuMTFpamNTcUg3V05HWHkyZ2N5ejZlMk9zVnpCRVpmTmpuZng1WXg5ZFVwWGxDZytwbEdaeHB6eThlUW10UldwL2hhQXFOdko3bjFQYVl1OWVJRkJLcWZJWTI1OWVXbk5uUEU5eEFZZlp2SnJlODN0ZFVwdnBsQTlmMXViV1JOL00xZTdwbmJIWDA4dWFXNVoyMlhpNjhzVUgxeld4cFpFMy9sdC9qNWV4dTlSSEpyYzNlcCtDb0MxVGN5T3ErOVBFM2NTRzhZbzUvNTJyZVI4NmtUVHhTb3ZuYWE5TnJMU2sxcXhYc0xqSDc4NUxYdkpUWFZLUjRrVUgwZGpmd2c3QmU4VEw2ZjBibWxzVk1uN2lSUXZlNldSaDVkbDFwQjRKckE2SUpyalozenFSTTdDbHhyNUp5dkhhOW5xZmNTR1AyNDF4bzdOV0luZ2VwMVRvRnI1SjJBTGZNaE1QbzNlZXBieTNHeG8wQ2FkMEpyNUIxaExmVXZnZW9qbzNOK2I5a1dPd3RVcnpjNk13b0NqeElZZmFHa0lFQ0FBQUVDQkFnUUlFQ0FBQUVDQkFnUUlFQ0FBQUVDQkFnUUlFQ0FBQUVDQkFnUUlFQ0FBQUVDQkFnUUlFQ0FBQUVDQkFnUUlFQ0FBQUVDQkFnUUlFQ0FBQUVDQkFnUUlFQ0FBQUVDQkFnUUlFQ0FBQUVDQkFnUUlFQ0FBQUVDQkFnUUlFQ0FBQUVDQkFnUUlFQ0FBQUVDQkFnUUlFQ0FBQUVDQkFnUUlFQ0FBQUVDQkFnUUlFQ0FBQUVDQkFnUUlFQ0FBQUVDQkFnUUlFQ0FBQUVDQkFnUUlFQ0FBQUVDQkFoY0ZQZ2JoSVU2OFoxb0dia0FBQUFBU1VWT1JLNUNZSUk9IiBoZWlnaHQ9IjE2NCIgd2lkdGg9IjI0NCIvPjxjbGlwUGF0aCBpZD0iY2xpcDIiPjxwYXRoIGNsaXAtcnVsZT0iZXZlbm9kZCIgZmlsbC1ydWxlPSJldmVub2RkIiBkPSJNMTMzMzUwIDEzMDk2NyA2NDc3MDAgMTMwOTY3IDY0NzcwMCAzOTQ0OTUgMTMzMzUwIDM5NDQ5NVoiLz48L2NsaXBQYXRoPjwvZGVmcz48ZyB0cmFuc2Zvcm09InRyYW5zbGF0ZSgtMTQ3MCAtMzkyKSI+PGc+PGcgdHJhbnNmb3JtPSJtYXRyaXgoMC4wMDAxNTc0OCAwIDAgMC4wMDAxNTc0OCAxNDcwIDM5MykiIGNsaXAtcGF0aD0idXJsKCNjbGlwMCkiPjxnIHRyYW5zZm9ybT0ibWF0cml4KDEgMCAwIDEuMDEyMDQgLTEzMzM1MCAtMTMyNTQ0KSIgY2xpcC1wYXRoPSJ1cmwoI2NsaXAyKSI+PHVzZSB0cmFuc2Zvcm09InNjYWxlKDMxNzUuMDIgMzE3NS4wMikiIG9wYWNpdHk9IjEiIHhsaW5rOmhyZWY9IiNpbWcxIiBoZWlnaHQ9IjEwMCUiIHdpZHRoPSIxMDAlIi8+PC9nPjwvZz48L2c+PC9nPjwvc3ZnPg==;clipPath=inset(2.27% 3.66% 4.55% 0%);points=[[0,0.5,0,0,0],[1,0.5,0,0,0]];" parent="1" vertex="1">
          <mxGeometry x="384.9999999999999" y="250" width="39.51" height="20.50518987341772" as="geometry" />
        </mxCell>
        <mxCell id="8LhANawI9LovUYU7yA3t-4" value="ORNP-1" style="shape=image;verticalLabelPosition=bottom;verticalAlign=top;imageAspect=0;aspect=fixed;image=data:image/svg+xml,PHN2ZyB4bWxuczp4bGluaz0iaHR0cDovL3d3dy53My5vcmcvMTk5OS94bGluayIgeG1sbnM9Imh0dHA6Ly93d3cudzMub3JnLzIwMDAvc3ZnIiBvdmVyZmxvdz0iaGlkZGVuIiB4bWw6c3BhY2U9InByZXNlcnZlIiBoZWlnaHQ9IjQ0IiB3aWR0aD0iODIiIHZpZXdCb3g9IjAgMCA4MiA0NCI+PGRlZnM+PGNsaXBQYXRoIGlkPSJjbGlwMCI+PHJlY3QgaGVpZ2h0PSIyNjY3MDAiIHdpZHRoPSI1MTQzNTAiIHk9IjAiIHg9IjAiLz48L2NsaXBQYXRoPjxpbWFnZSBpZD0iaW1nMSIgcHJlc2VydmVBc3BlY3RSYXRpbz0ibm9uZSIgeGxpbms6aHJlZj0iZGF0YTppbWFnZS9wbmc7YmFzZTY0LGlWQk9SdzBLR2dvQUFBQU5TVWhFVWdBQUFQUUFBQUNrQ0FZQUFBQ2dvUU1KQUFBQUFYTlNSMElBcnM0YzZRQUFBSVJsV0VsbVRVMEFLZ0FBQUFnQUJRRVNBQU1BQUFBQkFBRUFBQUVhQUFVQUFBQUJBQUFBU2dFYkFBVUFBQUFCQUFBQVVnRW9BQU1BQUFBQkFBSUFBSWRwQUFRQUFBQUJBQUFBV2dBQUFBQUFBQUJJQUFBQUFRQUFBRWdBQUFBQkFBT2dBUUFEQUFBQUFRQUJBQUNnQWdBRUFBQUFBUUFBQVBTZ0F3QUVBQUFBQVFBQUFLUUFBQUFBbUVrSkRBQUFBQWx3U0ZsekFBQUxFd0FBQ3hNQkFKcWNHQUFBQjI5SlJFRlVlQUh0MWd1TzQ4WU9CZEFKc3JCd0tXOG5xYXhzbkoyOG5TUzhIUlVnT1A0b2J0bnV0ZzhCdXZSaGxhUWpjWHArL0JBRUNCQWdRSUFBQVFJRUNCQWdRSUFBQVFJRUNCQWdRSUFBQVFJRUNCQWdRSUFBQVFJRUNCQWdRSUFBQVFJRUNCQWdRSUFBQVFJRUNCQWdRSUFBQVFJRUNCQWdRSUFBQVFJRUNCQWdRSUFBQVFJRUNCQWdRSUFBQVFJRUNCQWdRSUFBQVFJRUNCQWdRSUFBQVFJRUNCQWdRSUFBQVFJRUNCQWdRSUFBQVFJRUNCQWdRSUFBQVFJRUNCQWdRSUFBQVFJRUNCQWdRSUFBQVFJRUNCQWdRSUFBQVFJRUNCQWdRSURBc3dSK2ZkYUZiN2p1NkRuVmVlZ1VCQjRoVUgyUi95MFgrdjh5R25ZU0dMM09YMHRtdXpvRmdYc0lWQy82czNOK2I5a1dPd3FNWG12aXJzY2NUd29DZXdoVUw1TG1YWDlqY3p2bnhFNENvOWVac09mRzFBZ0N0d2hVVC9yWmVlN2J5dkdjRnpzS2pGN3JFdmc4bHpwQjRKcEFkY0hvbk4vTnVmRm4xMVNudUpQQTZIV1Q1MTdBUEo2YTZoUUUxZ0xWTzJuUytaMmNHMU9UV3ZFZ2dlcnJqTTV6TDJRZVQwMVN2TGRBOWVPblNlZDNjVzVNVFdyRkV3VkdYL3ZjQzFvZlQ1MTRMNEhxeDAyVHJyK0RVOXVqYTZwVGZDR0IwZmR5Nm1VZEgwdGRVcnltUVBWai9ldzhmdS9IKzZsSnJmamlBcVB2TDNuOEFrL3R6OW91Rjk5WW9QcmUwNkNuM3ZIeHNkU2xYbnd6Z2VyN0haM0hML1RjZm1xVDRuc0lWTjltbXZQYyt6dytudHJNRVM4Z01Qb1pqbC93cGYzVUo4WFhFcWkrblRUbXBYZTNQcGZhMFZtZDRnVUZxcDlwZEs1ZityWHQxQ2ZGY3dTcUw1dkd2UGFlNXZuVUpxdFR2SkZBOWJPT3p2a2hiQmxUbnhUM0ZhaGVQazI1NVoya0pyWEo2aFFFUGo2RTBRNWJQNkQ1RVdWT1V0d3VVRDAxT1p0eTZ6dVk5WmtyQ0p3VnFENHpPcmQrV091NnpFdFdwemd0VUgwNE9SdHk3WGR0ZTg3SmZFSGdQd3RVenhpZDF6NjBjK2Z6QVdaKzhoMmorcUdUc3hIUE9WMDZQdWRtSFVGZ040SHFsVWJucFk5dnk3bXNrYXpPVjR2cUIwck9KdHppY2FwbXpzOWFZcVBBTHh2cmxKMFdHTXZoMzNxc1pmc3p3NkVuLzdsYUlQdUp3OGZ2ODM5cXVZVTU1cmxuMU55NGNUejB2RHg3eHFTNFFVQkQzNEIyWVVyMXVXVGk5MytHM1g4UHZlS3BwdC9yUXJVc3RHZXpIdC9iWVRud3h6TE8vV1hYY0t1QWhyNVZidnU4c1pUdTlWZDgrNVcvVHVXaGJ5WC9DR1ZNaWpzSmFPZzd3VjVZdHZwY012R0tUWDc0ZUxJZlAvejFYU0FlT1dqb1IycGZ2MVoxU1hMRy9HOXZ6UU5QSGcvTDlmUFhObkg0K1Azblo3MjlPbXp6a1FJYStwSGErMXlyZXBua2pObjBjLyt6bzJiOXJLRDVCQWdRSUVDQUFBRUNCQWdRSUVDQUFBRUNCQWdRSUVDQUFBRUNCQWdRSUVDQUFBRUNCQWdRSUVDQUFBRUNCQWdRSUVDQUFBRUNCQWdRSUVDQUFBRUNCQWdRSUVDQUFBRUNCQWdRSUVDQUFBRUNCQWdRSUVDQUFBRUNCQWdRSUVDQUFBRUNCQWdRSUVDQUFBRUNCQWdRSUVDQUFBRUNCQWdRSUVDQUFBRUNCQWdRSUVDQUFBRUNCQWdRSUVDQUFBRUNCQWdRSUVDQUFJRVhFL2pseFo3bjFSK25WZzg0dDM5YkhkdGo4OC9WSW9mZVRvcHZJcUNodjg2THF0V3R6TzNackhOL1ZmS1V6Y055VlUzL0ZQN3JGOVhRMTQzMnJxaGx3ZCtYY2U0dnU5OStPUFFUekliUGRsSThTRUJEM3grNitoTEovTFhOK0k1eDZJZWVUVDdlRWVCUno2eWg5NVd1WmJsNy9mVTlyRzUzTnNqNjJPcjB6WnUxbW5uUGY0VCtXSzV6NkRFcGRoRFEwSjlEcko2ZTNPUERQL1E2TTQ2YjlUQlBQSG1zNWZwenpPNGV6NTUxRHAzenVVZHZDd0ozRjZpK3dzOGwvK3J4bHB6enMxYnkxYUw2Z2NhU3QvaXM1MlNkNmhRRWRoT29YbWsyNGZwajI3bzk1MmFkNUR2RzZJZE94bUtyMjNGZDVsZW5JUENmQmFwbnpFWTgvckF1N2M4NW1aOFVwd1dxRDQ4bEwzbWVPNWU1MVNrSW5CV29Qak1iOHR5SGRIeDgxbWR1VXR3dU1IcHFNcWJIenBmMk02YzZCWUdQRDJFMjVhV1BabjB1OWNYdTdnS2pyNUJjMjEvYlRuMTFpamNTcUg3V05HWHkyZ2N5ejZlMk9zVnpCRVpmTmpuZng1WXg5ZFVwWGxDZytwbEdaeHB6eThlUW10UldwL2hhQXFOdko3bjFQYVl1OWVJRkJLcWZJWTI1OWVXbk5uUEU5eEFZZlp2SnJlODN0ZFVwdnBsQTlmMXViV1JOL00xZTdwbmJIWDA4dWFXNVoyMlhpNjhzVUgxeld4cFpFMy9sdC9qNWV4dTlSSEpyYzNlcCtDb0MxVGN5T3ErOVBFM2NTRzhZbzUvNTJyZVI4NmtUVHhTb3ZuYWE5TnJMU2sxcXhYc0xqSDc4NUxYdkpUWFZLUjRrVUgwZGpmd2c3QmU4VEw2ZjBibWxzVk1uN2lSUXZlNldSaDVkbDFwQjRKckE2SUpyalozenFSTTdDbHhyNUp5dkhhOW5xZmNTR1AyNDF4bzdOV0luZ2VwMVRvRnI1SjJBTGZNaE1QbzNlZXBieTNHeG8wQ2FkMEpyNUIxaExmVXZnZW9qbzNOK2I5a1dPd3RVcnpjNk13b0NqeElZZmFHa0lFQ0FBQUVDQkFnUUlFQ0FBQUVDQkFnUUlFQ0FBQUVDQkFnUUlFQ0FBQUVDQkFnUUlFQ0FBQUVDQkFnUUlFQ0FBQUVDQkFnUUlFQ0FBQUVDQkFnUUlFQ0FBQUVDQkFnUUlFQ0FBQUVDQkFnUUlFQ0FBQUVDQkFnUUlFQ0FBQUVDQkFnUUlFQ0FBQUVDQkFnUUlFQ0FBQUVDQkFnUUlFQ0FBQUVDQkFnUUlFQ0FBQUVDQkFnUUlFQ0FBQUVDQkFnUUlFQ0FBQUVDQkFnUUlFQ0FBQUVDQkFnUUlFQ0FBQUVDQkFoY0ZQZ2JoSVU2OFoxb0dia0FBQUFBU1VWT1JLNUNZSUk9IiBoZWlnaHQ9IjE2NCIgd2lkdGg9IjI0NCIvPjxjbGlwUGF0aCBpZD0iY2xpcDIiPjxwYXRoIGNsaXAtcnVsZT0iZXZlbm9kZCIgZmlsbC1ydWxlPSJldmVub2RkIiBkPSJNMTMzMzUwIDEzMDk2NyA2NDc3MDAgMTMwOTY3IDY0NzcwMCAzOTQ0OTUgMTMzMzUwIDM5NDQ5NVoiLz48L2NsaXBQYXRoPjwvZGVmcz48ZyB0cmFuc2Zvcm09InRyYW5zbGF0ZSgtMTQ3MCAtMzkyKSI+PGc+PGcgdHJhbnNmb3JtPSJtYXRyaXgoMC4wMDAxNTc0OCAwIDAgMC4wMDAxNTc0OCAxNDcwIDM5MykiIGNsaXAtcGF0aD0idXJsKCNjbGlwMCkiPjxnIHRyYW5zZm9ybT0ibWF0cml4KDEgMCAwIDEuMDEyMDQgLTEzMzM1MCAtMTMyNTQ0KSIgY2xpcC1wYXRoPSJ1cmwoI2NsaXAyKSI+PHVzZSB0cmFuc2Zvcm09InNjYWxlKDMxNzUuMDIgMzE3NS4wMikiIG9wYWNpdHk9IjEiIHhsaW5rOmhyZWY9IiNpbWcxIiBoZWlnaHQ9IjEwMCUiIHdpZHRoPSIxMDAlIi8+PC9nPjwvZz48L2c+PC9nPjwvc3ZnPg==;clipPath=inset(2.27% 3.66% 4.55% 0%);points=[[0,0.5,0,0,0],[1,0.5,0,0,0]];" vertex="1" parent="1">
          <mxGeometry x="384.9999999999999" y="322.75" width="39.51" height="20.50518987341772" as="geometry" />
        </mxCell>
        <mxCell id="8LhANawI9LovUYU7yA3t-14" style="edgeStyle=orthogonalEdgeStyle;rounded=0;orthogonalLoop=1;jettySize=auto;html=1;exitX=1;exitY=0.5;exitDx=0;exitDy=0;exitPerimeter=0;entryX=0;entryY=0.5;entryDx=0;entryDy=0;entryPerimeter=0;" edge="1" parent="1" source="wdwd_AqZ2ZVo4Lx0RvvQ-101" target="wdwd_AqZ2ZVo4Lx0RvvQ-68">
          <mxGeometry relative="1" as="geometry">
            <Array as="points">
              <mxPoint x="460" y="260" />
              <mxPoint x="460" y="220" />
            </Array>
          </mxGeometry>
        </mxCell>
        <mxCell id="8LhANawI9LovUYU7yA3t-16" value="SVNV" style="shape=image;verticalLabelPosition=bottom;verticalAlign=top;imageAspect=0;aspect=fixed;image=data:image/svg+xml,PHN2ZyB4bWxuczp4bGluaz0iaHR0cDovL3d3dy53My5vcmcvMTk5OS94bGluayIgeG1sbnM9Imh0dHA6Ly93d3cudzMub3JnLzIwMDAvc3ZnIiBvdmVyZmxvdz0iaGlkZGVuIiB4bWw6c3BhY2U9InByZXNlcnZlIiBoZWlnaHQ9IjYyIiB3aWR0aD0iODQiIHZpZXdCb3g9IjAgMCA4NCA2MiI+PGRlZnM+PGNsaXBQYXRoIGlkPSJjbGlwMCI+PHJlY3QgaGVpZ2h0PSI2MiIgd2lkdGg9Ijg0IiB5PSI2MjAiIHg9IjEwNDYiLz48L2NsaXBQYXRoPjxjbGlwUGF0aCBpZD0iY2xpcDEiPjxyZWN0IGhlaWdodD0iNjIiIHdpZHRoPSI4NCIgeT0iNjIwIiB4PSIxMDQ2Ii8+PC9jbGlwUGF0aD48Y2xpcFBhdGggaWQ9ImNsaXAyIj48cmVjdCBoZWlnaHQ9IjM5MzcwMCIgd2lkdGg9IjUyNzA1MCIgeT0iMCIgeD0iMCIvPjwvY2xpcFBhdGg+PGltYWdlIGlkPSJpbWczIiBwcmVzZXJ2ZUFzcGVjdFJhdGlvPSJub25lIiB4bGluazpocmVmPSJkYXRhOmltYWdlL3BuZztiYXNlNjQsaVZCT1J3MEtHZ29BQUFBTlNVaEVVZ0FBQVBRQUFBRE1DQVlBQUFCRUJvNCtBQUFBQVhOU1IwSUFyczRjNlFBQUFJUmxXRWxtVFUwQUtnQUFBQWdBQlFFU0FBTUFBQUFCQUFFQUFBRWFBQVVBQUFBQkFBQUFTZ0ViQUFVQUFBQUJBQUFBVWdFb0FBTUFBQUFCQUFJQUFJZHBBQVFBQUFBQkFBQUFXZ0FBQUFBQUFBQklBQUFBQVFBQUFFZ0FBQUFCQUFPZ0FRQURBQUFBQVFBQkFBQ2dBZ0FFQUFBQUFRQUFBUFNnQXdBRUFBQUFBUUFBQU13QUFBQUFNUXMxZ0FBQUFBbHdTRmx6QUFBTEV3QUFDeE1CQUpxY0dBQUFEZlZKUkVGVWVBSHRtZ3V5NHpZT1JaUFU3Q3ZLeWhxek1tZFc5dWF5eSt3bVlOcFBOdlVocVlNcUZRbUtIL0FBTjNiNzVZOC9NQWhBQUFJUWdBQUVJQUFCQ0VBQUFoQ0FBQVFnQUFFSVFBQUNFSUFBQkNBQUFRaEFBQUlRZ0FBRUlBQUJDRUFBQWhDQUFBUWdBQUVJUUFBQ0VJQUFCQ0FBQVFoQUFBSVFnQUFFSUFBQkNFQUFBaENBQUFRZ0FBRUlRQUFDRUlBQUJDQUFBUWhBQUFJUWdBQUVJQUFCQ0VBQUFoQ0FBQVFnQUFFSVFBQUNFSUFBQkNBQUFRaEFBQUlRZ0FBRUlBQUJDRUFBQWhDQUFBUWdBQUVJUUFBQ0VJQUFCQ0FBQVFoQUFBSVFnQUFFSUFBQkNFQUFBaENBQUFRZ0FBRUlRQUFDRUlBQUJDQUFBUWhBQUFJUWdBQUVJQUFCQ0VBQUFoQ0FBQVFnY0FVQ3BrdCtGVS95c2NrSi9EWDUvYmdlQkM1RkFFRmZLdDFjZG5ZQ0NIcjJESE8vU3hGQTBKZEtONWVkblFDQ25qM0QzTzlTQlA2ODFHMlB2V3o2aGJrMysxY0IvZThlVk9xbkI0TUFCRllRS1A5azFIUC9wcnZZaXZzd0JRS1hKdEN6aUovRlpwZk9HSmVId0FzQ3owVFQrL2hOZDFwZTNJdFhFSURBQ1FSTVo1Yi84VWorb2llMTZTbmYxZnFMNW1BUWdFQW5CRXh4bEVKTmZzMU1nK1c4c2wrYnoxakhCUGl6VmNmSk9TZzAwem5wcngzL3JaeTNWTVlZNnBnQWd1NDRPUWVIWmpvdml2ckh3VEZ3WENNQkJOMEljTExsRnU2ekJCKzNjd0lJdXZNRUhSeWVoZlBpSjNaNGpkc2JBUVRkVzBiT2k4ZDBORit4eitPL3ljbi8yV1FYTmhtVndLTEFrNGhUV3pPckRUTFdMd0VFM1c5dXRvN3NiMjI0M0RmTm44VFp2dys3aHEvYkRnY09CTTRsWURyKzY0UG5waldMSG14QUFueENENWkwblVMK1YvdW1UK1hVWW9NUzRFZXhRUk8zUTlpTDlrd1BOakFCQkQxdzhuWUlQZjNibXEvY080QTlha3NFZlJUcDg4OUpYNmYvMFpQYTlEeXpSUzhROVRNNmpFUGdKQUttYzcrS0ovazFNdzJXODhwK2JUNWpIUlBnRTdyajVCd1VtdW1jUC9YVVByVVhqV01ERVVEUUF5VnI1MUJOKzBkUi85ajVUTGJmbUFDQzNoam80TnRaaUg4SlBtN25CQkIwNXdrNk9Ed0w1OFZQN1BBYXR6Y0NDTHEzakp3WGorbG92bUtmeDMrVGsvay94VGJCT093bWl5SlBJazV0emF3MnlGaS9CQkIwdjduWk9ySy90ZUZ5M3pSL0VtZi9QdXdhdm00N0hEZ1FPSmVBNmZpdkQ1NmIxaXg2c0FFSjhBazlZTkoyQ3ZsZjdacytsVk9MRFVxQUg4VUdUZHdPWVMvYU16M1l3QVFROU1ESjJ5SDA5Rzlydm5MdkFQYW9MUkgwVWFUUFB5ZDluZjVIVDJyVDg4d1d2VURVeitndzNremdTenRZOHk3WDJ5QXhTK3p5ay95YW1RYnpuTmpXNWw5MUxITzY2djAzdTNkWlpBa3F0bzZBYWRvNzdPTDh0SGJSYzNVekFTZzVYcDFIOC8xTG1MbWZJR092Q1poZVoxNnBUZjUzWnBwUXJybDl0MkRpOTVGRjVqTHhsWSs1V2daWmF4TjByRTdBTkZ3eVMvNGFLOWVrL3RYTWRPSElvUFM3NWpINmoySS83dkJURXJCMkFoYTJlUFhqV1pnNnZKdnVub1NiYW1wWUcxM1FHVHpDemlRK2IwMUxoeTdtRDYrZTdqMjhrRCs4K3luTEV1eGZqNW45NnBmam9XL3lyMjRtQUNXcjVFZGJOSERUVTg0ciszSCtUTDY5dVBkUEJrOXFiU1lHcDl5bExMQ3ZiRTlndTdtSzFrNkp1STlEMDkxTEhqZjV5LzFKL2ZTVTcyUGY5SDVHTTEwcTN0WDVxYmF5VmViT3lPVFFPem5ZR1hSdUVmYlRYSmplT0hZci9adm1MWHBtTTlPRlh2SW9oWnpycTdKbU5pNkgzOGNsSVlPT0xjSit5SXRweExIN3hrZklzYWprVjVocENHc2g0S0JXbUxzaGhQMEx0YW5uMkszdzA1cFp6SFNSbC9ldmZTSzdZa0xRdTlTQ1Mwb0Uvc3hIMkQ5L1AzRHN2aXZ3Ky91YjJrWFBxR1lLL09XOTF3ZzUxMVZscjFHNWRCTzNTMDRHdmJhOXNMQXRGR1B5RnoycFRZL2pXdkVYalkxa3BtQmYzdWtkSWVmNnF1dzVFcE11WTNWSnlxRGZiUzhvYkF2Rm1QeWFtUVlkNDhLdnplOXR6SXA0cS9mNFJNaTV2aXA3OTNiLzRlSnhTY3FnUDIwdkpHd0x4Wmo4VjJaNjZWakxYL1QwYXFiQVlyek9ieEZ5cnEvS0diM3lHQ1l1bDZRTXVyVzlnTEF0RkdQeXZ6UFRoSkwzN2JzRko3eVBNWmJ4L3V4dkllUmNYNEZIMmg5ckpPQVNsa0Z2MVU0c2JCUDNrbDN5MTFpNXBxY0NOZ1VmWTNQK2xrTE85VlU1Y3cxRDVyd2c0SktXUVcvZFRpaHNFOU9TWGZLL005T0VkOWQ4dDJmcit4aFRHZC9QL2g1Q3p2VVZlS1R6c0VZQ0xvRVo5Rjd0Uk1JMmNTL1pKZitWbVY2VzgxTS9qWjFscG9OalBNN2ZVOGk1dmlveG5NVmptbk5kRWpQb3Zkc0poRzJoR0pNZmJkSEFUWTlqWFBqcUhtNm1FNS9GODNQOENDSG4rcXJFY2ppUTJRNTB5YzJnajJvSEZyYUZZcnpKWCs1UDZxZkhzUTIreVQvU1RJZTlpdWZyU0NIbitxckVkQ1NUS2M5eVNjNmdqMjQvRUxhTHUxSVl2YjYvS2RibHdFb3luZldTeFJsQ3p2VlZpZTFBTkhNZTVaS2RRWi9WdmlGc0YzZWxNSHA3ZjFPTXk0RWxaRHJySllNemhaenJxeExqZ1lqbVBNb2xQWU0rdTEwcGJCZDdwVGg2ZUg5VFhNdUJwV002NitXOWV4QnlycTlLckFlaW12TW9sL3dNdXBkMklHRW40ZVpuVVQ4OVI1cnBNSmZMNlBjazVGeGZNVWI1V0NNQlZ3UVpkRy90U21GYkk0dDNscWV6U25iSlA4Tk1oNVp4UFBSN0ZIS3VyMHJzWnpDYzZreFhBQmwwcjIxSHdyWlFqTWsvMGt5SHVkeEZ2MmNoNS9xS01jdkhHZ200b3NpZ2UyODdFTGFKZThrdStVZVk2WkR5M0lmK0NFTE85Vlc1eXhFTXB6N0RGVVFHUFVwN29yQXRGR1B5OXpUVDVpNVgwUjlKeUxtKzRoM2tZNDBFWEpGazBLTzFKd2pieEwxa2wvdzl6TFJwZWM1RGYwUWg1L3FxM0cwUGhwZmEweFZJQmoxcWU2Q3dMUlJqOHJjMDAyWXVOOUVmV2NpNXZ1S2Q1R09OQkZ6UlpOQ2p0d2NJMjhTOVpKZjhMY3kwU2JudlEzOEdJZWY2cXR4MUM0YVgzc01WVEFZOVM3dWpzQzBVWS9KYnpMVFk1U0w2TXdrNTExZThvM3lza1lBcm9neDZ0bllIWVp1NGwreVMvNG1aRnBYN1BQUm5GSEt1cjhyZFAySEltb0tBSzZBTWV0WjJRMkdiR0pic2t2K09tU2FYNngvNk13czUxMWVGd1RzTW1Wc2g0QW9wZzU2OTNVRFlKcFlsdStTdk1kT2tjdDFEL3dwQ3p2VlZZYkdHSVhOZUVIQUZsVUZmcFcwUXRvbHB5Uzc1cjh6MHNwei8wTCtTa0hOOVZaaThZc2k3RlFSY1lXWFFWMnMvRUxhSmJja3UrVFV6RFpiekh2cFhGSEt1cndxYkdrUEczaURnQ2l5RHZtcjdockJOakV0MnlTL041SlR2SC9wWEZuS3Vyd3Fqa2lIOUR3aTRRc3Vncjk2dUZIYkp6dTdzVTF1T1AvUVI4dS9xcXJDNlk2VDVsSUFydU4rbzZTVUNId2piOFN3TEZpRS8xbFRKNTk3L3RJNVpkeWZnQ3ZBUk9TT0pRSXV3RWZMekdycUx1S3hCaE5sSW9JVDVuRHh2ZmhKNFI5Z0krZnVpR1UzUWZ6V0tqZVVRZ0FBRTNpTEFKL1QzSHlSODVWN0I2Sk1wcWxSWGYyOVZMcE9yQkJ6UVQ1SXk4NXFWWDdGTlpOUGpXRWFmcitDUGxSSVp5Y2NhQ2JnaWZFUit6WkUzaEJ6eG13WWMwK2dqN044MUZkbkl4eG9KdU9MN2pmcWF2UVloeHpTWUJoemI2Q1BzcnhxZnlCSC9UUUlPNmpWbHZQclBVdlltMnpROXJYR01vMzlsWVVjVzhyRkdBcTdZcmlib0RUK1J2MHVEYVlKakhmMHJDanN5a0k4MUVuQkZkaFZCSHlqa21CN1RnR01lL1NzSk85NWRQdFpJd0JYWDdJSStVY2d4VGFZQnh6NzZWeEIydkxOOHJKR0FLNnBaQmQyUmtHTzZUQU11QjlHZldkanhydkt4UmdLdW1HWVRkTWRDam1rekRiaGNSSDlHWWNjN3lzY2FDYmdpbWtYUUF3azVwczgwNEhJUy9abUVIZThtSDJzazRJcG5kRUVQTE9TWVJ0T0F5MDMwWnhCMnZKTjhySkdBSzVwUkJUMlJrR002VFFNdVI5RWZXZGp4THZLeFJnS3VXRVlUOU1SQ2ptazFEYmhjUlg5RVljYzd5TWNhQ2JnaUdVWFFGeEp5VEs5cHdPVXMraU1KTzhZdUgyc2s0SXFqZDBGZldNZ3h6YVlCbDd2b2p5RHNHTE44ckpHQUs0cGVCWTJRbjJiWjlNYmxNUG85Q3p2R0toOXJKT0NLb1RkQkkrVFYyVFhOZExtTWZvL0NqakhLeHhvSnVDTG9SZEFJK2VPc21sYTZuRWEvSjJISDJPUmpqUVJjOHM4V05FSnV6T2J2NWFhdXkyMzBleEIyakVrKzFrakFKZjBzUVNQa3hpdytYMjU2NVhJYy9UT0ZIV09SanpVU2NNaytXdEFJdVRGNzY1ZWJwcnBjUi84TVljY1k1R09OQkZ5U2p4STBRbTdNMnVmTFRVdGR6cU4vcExEajJmS3hSZ0l1dVhzTEdpRTNabXU3NWFhdFhPNmpmNFN3NDVueXNVWUNMcWw3Q1JvaE4yWnB2K1dtclYwTlJIOVBZY2V6NUdPTkJGd3l0eFkwUW03TXpuSExUVWU1V29qK0hzS09aOGpIR2dtNEpHNGxhSVRjbUpYemxwdU9kalVSL1MyRkhmZVdqelVTY01sckZUUkNic3hHUDh0Tm9iamFpUDRXd281N3lzY2FDYmlrZlNwb2hOeVloWDZYbTBKek5STDlGbUhIdmVSampRUmNzdDRWTkVKdXBEL09jbE9vcmxhaS80bXc0eDd5c1VZQ0xrbHJCWTJRRzZtUHU5d1V1cXVaNkw4ajdMaFdQdFpJd0NYbk8wRWo1RWJhOHl3M1hjWFZUdlRYQ0R1dWtZODFFbkJKZVNab2hOeEllZDdscHF1NUdvcitLMkhIdWZLeFJnSXVHVkhRQ0xtUjduV1dtNjdxYWluNk5XSEhPZkt4UmdJdUNWblFDTG1SNm5XWG02N3VhaXI2cGJEak8vbFlJd0VISHlFMzBtUjVKbURxdU5xSy9wTmF5K3RwUHlUd0VucElnbjE0QnN1dVN5RFZ6RHMxZGwxU0c5MThEZXlVRkF3Q0xRUk1pOWZVV3NzWnJQMEdza0VJQWhzVFNEWDFTdGdiSDNlOTdXcHdFM1FNQW5zU01HMWVxNzA5ejd6RTNpWFVCQm1Ed0pFRVRJZVZOWGprMlZPZWxXRGFsRGZqVWlNUlNEV1lhaEdEQUFRZ0FBRUlRQUFDRUlBQUJDQUFBUWhBQUFJUWdBQUVJQUFCQ0VBQUFoQ0FBQVFnQUFFSVFBQUNFSUFBQkNBQUFRaEFBQUlRZ0FBRUlBQUJDRUFBQWhDQUFBUWdBQUVJUUFBQ0VJQUFCQ0FBQVFoQUFBSVFnQUFFSUFBQkNFQUFBaENBQUFRZ0FBRUlRQUFDRUlBQUJDQUFBUWhBQUFJUWdBQUVJQUFCQ0VBQUFoQ0FBQVFnQUFFSVFBQUNFSUFBQkNBQUFRaEFBQUlRZ0FBRUlBQUJDRUFBQWhDQUFBUWdBQUVJUUFBQ0VJQUFCQ0FBQVFoQUFBSVFnQUFFSUFBQkNFQUFBaENBQUFRZ3NDV0Ivd004QVVpUW0xM04zd0FBQUFCSlJVNUVya0pnZ2c9PSIgaGVpZ2h0PSIyMDQiIHdpZHRoPSIyNDQiLz48Y2xpcFBhdGggaWQ9ImNsaXA0Ij48cmVjdCBoZWlnaHQ9IjM5MzcwMCIgd2lkdGg9IjUyMTI2MyIgeT0iMTI3NTU4IiB4PSIxMjI4MjkiLz48L2NsaXBQYXRoPjwvZGVmcz48ZyB0cmFuc2Zvcm09InRyYW5zbGF0ZSgtMTA0NiAtNjIwKSIgY2xpcC1wYXRoPSJ1cmwoI2NsaXAwKSI+PGcgY2xpcC1wYXRoPSJ1cmwoI2NsaXAxKSI+PGcgdHJhbnNmb3JtPSJtYXRyaXgoMC4wMDAxNTc0OCAwIDAgMC4wMDAxNTc0OCAxMDQ3IDYyMCkiIGNsaXAtcGF0aD0idXJsKCNjbGlwMikiPjxnIHRyYW5zZm9ybT0ibWF0cml4KDEuMDExMSAwIDAgMSAtMTI0MTkyIC0xMjc1NTgpIiBjbGlwLXBhdGg9InVybCgjY2xpcDQpIj48dXNlIHRyYW5zZm9ybT0ic2NhbGUoMzE0OS41NyAzMTQ5LjU3KSIgb3BhY2l0eT0iMSIgeGxpbms6aHJlZj0iI2ltZzMiIGhlaWdodD0iMTAwJSIgd2lkdGg9IjEwMCUiLz48L2c+PC9nPjwvZz48L2c+PC9zdmc+;clipPath=inset(0% 0% 0% 1.19%);points=[[0.02,0.63,0,0,0],[1,0.63,0,0,0]];" vertex="1" parent="1">
          <mxGeometry x="779.67" y="312.8899999999999" width="40.65" height="30.365060240963857" as="geometry" />
        </mxCell>
        <mxCell id="8LhANawI9LovUYU7yA3t-17" style="edgeStyle=orthogonalEdgeStyle;rounded=0;orthogonalLoop=1;jettySize=auto;html=1;exitX=1;exitY=0.5;exitDx=0;exitDy=0;exitPerimeter=0;entryX=0.02;entryY=0.63;entryDx=0;entryDy=0;entryPerimeter=0;" edge="1" parent="1" source="wdwd_AqZ2ZVo4Lx0RvvQ-51" target="8LhANawI9LovUYU7yA3t-16">
          <mxGeometry relative="1" as="geometry">
            <Array as="points">
              <mxPoint x="760" y="405" />
              <mxPoint x="760" y="332" />
            </Array>
          </mxGeometry>
        </mxCell>
        <mxCell id="8LhANawI9LovUYU7yA3t-18" value="CKNP" style="shape=image;verticalLabelPosition=bottom;verticalAlign=top;imageAspect=0;aspect=fixed;image=data:image/svg+xml,PHN2ZyB4bWxuczp4bGluaz0iaHR0cDovL3d3dy53My5vcmcvMTk5OS94bGluayIgeG1sbnM9Imh0dHA6Ly93d3cudzMub3JnLzIwMDAvc3ZnIiBvdmVyZmxvdz0iaGlkZGVuIiB4bWw6c3BhY2U9InByZXNlcnZlIiBoZWlnaHQ9IjQ0IiB3aWR0aD0iODQiIHZpZXdCb3g9IjAgMCA4NCA0NCI+PGRlZnM+PGNsaXBQYXRoIGlkPSJjbGlwMCI+PHJlY3QgaGVpZ2h0PSI0NCIgd2lkdGg9Ijg0IiB5PSI2MzYiIHg9IjY2OCIvPjwvY2xpcFBhdGg+PGNsaXBQYXRoIGlkPSJjbGlwMSI+PHJlY3QgaGVpZ2h0PSI0NCIgd2lkdGg9Ijg0IiB5PSI2MzYiIHg9IjY2OCIvPjwvY2xpcFBhdGg+PGNsaXBQYXRoIGlkPSJjbGlwMiI+PHJlY3QgaGVpZ2h0PSIyNzMwNTAiIHdpZHRoPSI1MjcwNTAiIHk9IjAiIHg9IjAiLz48L2NsaXBQYXRoPjxpbWFnZSBpZD0iaW1nMyIgcHJlc2VydmVBc3BlY3RSYXRpbz0ibm9uZSIgeGxpbms6aHJlZj0iZGF0YTppbWFnZS9wbmc7YmFzZTY0LGlWQk9SdzBLR2dvQUFBQU5TVWhFVWdBQUFQUUFBQUNrQ0FZQUFBQ2dvUU1KQUFBQUFYTlNSMElBcnM0YzZRQUFBSVJsV0VsbVRVMEFLZ0FBQUFnQUJRRVNBQU1BQUFBQkFBRUFBQUVhQUFVQUFBQUJBQUFBU2dFYkFBVUFBQUFCQUFBQVVnRW9BQU1BQUFBQkFBSUFBSWRwQUFRQUFBQUJBQUFBV2dBQUFBQUFBQUJJQUFBQUFRQUFBRWdBQUFBQkFBT2dBUUFEQUFBQUFRQUJBQUNnQWdBRUFBQUFBUUFBQVBTZ0F3QUVBQUFBQVFBQUFLUUFBQUFBbUVrSkRBQUFBQWx3U0ZsekFBQUxFd0FBQ3hNQkFKcWNHQUFBQnhWSlJFRlVlQUh0M1FGUzJ6Z1lCbERZMlh2Um5xenR5ZHFlakpWM2NHc3BDckV0V1piaTV4bkd5TmlTZVBxL0JFSVNYbDVzQkFnUUlFQ0FBQUVDQkFnUUlFQ0FBQUVDQkFnUUlFQ0FBQUVDQkFnUUlFQ0FBQUVDQkFnUUlFQ0FBQUVDQkFnUUlFQ0FBQUVDQkFnUUlFQ0FBQUVDQkFnUUlFQ0FBQUVDQkFnUUlFQ0FBQUVDQkFnUUlFQ0FBQUVDQkFnUUlFQ0FBQUVDQkFnUUlFQ0FBQUVDQkFnUUlFQ0FBQUVDQkFnUUlFQ0FBQUVDQkFnUUlFQ0FBQUVDQkFnUUlFQ0FBQUVDQkFnUUlFQ0FBQUVDQkFnUUlFQ0FBQUVDQkFnUUlFQ0F3RmtDcjJjTnZHSGM5dzNuT3BYQTBRSmRaK2Fmbzc5Ny9STWcwRTVBb050Wkc0bkE0UUlDZlRpeEFRaTBFL2kzM1ZCMVJucC85eXQxSFVtOXJCRjRmZTM2VithYmI4RTk5QTJKQXdUR0ZSRG9jZGZPekFuY0NBajBEWWtEQk1ZVkVPaHgxNjc2ekgvOStsVzlUeDIyRlJEb3R0NWRqL2I3OSsrWDZVR2dIejkrZEQxUGs3c3ZJTkQzYlM3N2xlL2Z2d3Yyb0tzdjBJTXVYSXRwQzNZTDVicGpDSFJkejZmc1RiREhXVmFCSG1ldFRwK3BZSisrQkE4bklOQVBpWnlRQ2doMkt0SlBXNkQ3V1l2aFppTFkvUzJaUVBlM0pzUE5TTEQ3V1RLQjdtY3RocCtKWUorL2hBSjkvaG84M1F3RSs3d2xGZWp6N0o5KzVDbllYNzkrOWN5emhpczkzT3VoRzlvWXFvTEE5UHp3NVhQRXYzMzdWcUZYWGR3VEVPaDdNbzVYRlpqdXJaZWJZQzgxNm4wdTBQVXM5YlJDUUxCWElCV2NJdEFGZUM3ZEx5RFkrKzArdTFLZ1A5UHh0Y01GQkxzdXNVRFg5ZFRiVG9GbHNOL2UzbDYrZlBteXM2ZHJYK2JQVnRkZS8rNisreW5ZL3RTMWYxa0VlcitkS3c4VW1JTHQzVk8yQTQvd3BzUFJHM0gzK0w3Y3k3K3pibCtDZnE2WTNvSm8rYU52UHpONytYOWVaL3lwSy9PKzNDTmtwcWVsdTVuTEZPZy9IeUhRMlcxNWpzLy9lajJiUmJqQnlhNy9VUWN6ZnVHUXJVVGdUNWhESjNmWGJmcWFqK3NZdEFwMnBxYkNJVnVKUUJUVWU0a09BMFRuYVYvRDQraGdaK3FvcEpaZG00SUs5RFdDbXE3N28vWlJ3YzZNR3c3WlNnU2llMTZCRnVoUVRGRk5MTnUxZzczcysrUHpzTE9WQ0VTTEo5RDNpemtnUjFaWGJ0Y0tkc2F3cEpaZG00SUt0TkNtTmZGWnV6VFltYjdESVZ1SlFIU3ZJOUFDSFlvcHFvazE3YjNCenZSZFVzdXVUVUVGZW5zeHA0WlhibThOZHNZcUhMS1ZDRVMzeGdJdDBLR1lvcHJZMDE0YjdFemZKYlhzMmhSVW9NdUxPVFc5Y3Z0UnNETTI0WkN0UkNDNk5SWm9nUTdGRk5WRWpmYTlZR2Y2THFsbDE2YWdBbDIvbUZQaks3ZC8vdndabFZqR0loenFkL1B5eVg3WHhzd2FDb1I3Nk9tRkF0NVlvWUY1OU9OVmRQTzVhSVI1Uk9kcDgxaFRBL2QrMUo1TEs5TkhPR1FyRVlpQ09rT24rekJBZEo0Mmo4OXFJTHpGMFh2NjQzVmFVMU03MDBjNFpDc1JpRkJ6NkhmZ28rdkNCTFFadks4TjhseG5tYm9wcVdYWHBxQXpkTHBQejlOMkE3YXNnYTFCbnV0cjJjZkg1MkZuS3hHSTdsbG42SFFmQm9qTzArWXgxY0RlSU0vMWxhbWpjTWhXSWhBRmRZWk85MkdBNkR6dGEzdVVCbm11cjB3ZGxkU3lhMVBRR1RyZHArZHBYelBRdFlJODExZW1qc0loVzRsQWRNODdRNmY3TUVCMG52YTFQR29IZWE2dlRCMlYxTEpyVTlBWk90Mm41MmxmSTlCSEJYbXVyMHdkaFVPMkVvSG9ubmVHVHZkaGdPZzg3ZWYyT0RySWMzMWw2cWlrbGwyYmdzN1E2VDQ5VC9zNUE5MHF5SE45WmVvb0hPcDM4OC9xT2x1YlVMQ256YWpuL3dBeXVVei9PZU5NbjlNVzVza0dqbjZVbm04NTdlc0xUTTlyRHJYVDNjZWo1MXZYbC9qYlk4YWo2M2k1aCs1NmVhNDl1ZWtWVUdmOFA2dVIxUVY2NU5WNzBya0w4djZGRmVqOWRxNnNMQ0RJNWFBQ1hXNm9oMElCRDNnVkFpNHVGK2dGaGsvYkNnaHlmVytCcm0rcXh3Y0NndndBcU9ETEFsMkE1OUp0QW9LOHpXdlAyUUs5UjgwMW13UUVlUk5YMGNrQ1hjVG40czhFQlBrem5XTytKdERIdUY2NlYwRStiL2tGK2p6N3B4dFprTTlmVW9FK2Z3MkduNEVnOTdPRUF0M1BXcHcrazdlM3QwMXpFT1JOWEUxT0Z1Z216TTgzU0hpVCtwY3AwTGErQlB4dnE3N1dvL3ZaVE0rM0RpOHVGT1pPVjhvOWRLY0wwOXUwdkhDaXR4WEp6MGVnOHk2T2ZnZ0k4bGlsSU5CanJWZXoyUXB5TStxcUF3bDBWYzd4Ty9QSTlkaHIrRHJBOUtmM3VQcXpUUS9JMkFpMEVuaDl2WW5JellGV2Mxa3pqa2U1MXlnNWg4QWdBZ0k5eUVLWkpvRTFBZ0s5UnNrNUJBWVJFT2hCRnNvMENhd1I2UG9YL0k5dndLTmdhMWJTT2EwRXVzNk1lK2hXWldBY0FnMEVCTG9Cc2lFSXRCSVE2RmJTeGlGQWdBQUJBZ1FJRUNCQWdBQUJBZ1FJRUNCQWdBQUJBZ1FJRUNCQWdBQUJBZ1FJRUNCQWdBQUJBZ1FJRUNCQWdBQUJBZ1FJRUNCQWdBQUJBZ1FJRUNCQWdBQUJBZ1FJRUNCQWdBQUJBZ1FJRUNCQWdBQUJBZ1FJRUNCQWdBQUJBZ1FJRUNCQWdBQUJBZ1FJRUNCQWdBQUJBZ1FJRUNCQWdBQUJBZ1FJRUNCQWdBQUJBZ1FJRUNCQWdBQUJBZ1FJRUNCQWdBQUJBZ1FJRUNCQWdBQUJBZ1FJRUNCQWdBQUJBZ1FJRUhocWdmOEFNRDh0L0k3NzBDUUFBQUFBU1VWT1JLNUNZSUk9IiBoZWlnaHQ9IjE2NCIgd2lkdGg9IjI0NCIvPjxjbGlwUGF0aCBpZD0iY2xpcDQiPjxwYXRoIGNsaXAtcnVsZT0iZXZlbm9kZCIgZmlsbC1ydWxlPSJldmVub2RkIiBkPSJNMTI1Nzg1IDEyNDIwMCA2NTI4MzUgMTI0MjAwIDY1MjgzNSAzOTQ4ODQgMTI1Nzg1IDM5NDg4NFoiLz48L2NsaXBQYXRoPjwvZGVmcz48ZyB0cmFuc2Zvcm09InRyYW5zbGF0ZSgtNjY4IC02MzYpIiBjbGlwLXBhdGg9InVybCgjY2xpcDApIj48ZyBjbGlwLXBhdGg9InVybCgjY2xpcDEpIj48ZyB0cmFuc2Zvcm09Im1hdHJpeCgwLjAwMDE1NzQ4IDAgMCAwLjAwMDE1NzQ4IDY2OCA2MzYpIiBjbGlwLXBhdGg9InVybCgjY2xpcDIpIj48ZyB0cmFuc2Zvcm09Im1hdHJpeCgxIDAgMCAxLjAwODc0IC0xMjU3ODUgLTEyNTI4NSkiIGNsaXAtcGF0aD0idXJsKCNjbGlwNCkiPjx1c2UgdHJhbnNmb3JtPSJzY2FsZSgzMTg0LjU0IDMxODQuNTQpIiBvcGFjaXR5PSIxIiB4bGluazpocmVmPSIjaW1nMyIgaGVpZ2h0PSIxMDAlIiB3aWR0aD0iMTAwJSIvPjwvZz48L2c+PC9nPjwvZz48L3N2Zz4=;clipPath=inset(0% 2.38% 4.55% 0%);points=[[0,0.5,0,0,0],[1,0.5,0,0,0]];" vertex="1" parent="1">
          <mxGeometry x="610" y="396.0000000000001" width="40.09" height="20.53390243902439" as="geometry" />
        </mxCell>
        <mxCell id="8LhANawI9LovUYU7yA3t-20" style="edgeStyle=orthogonalEdgeStyle;rounded=0;orthogonalLoop=1;jettySize=auto;html=1;exitX=0.5;exitY=1;exitDx=0;exitDy=0;exitPerimeter=0;entryX=0.02;entryY=0.5;entryDx=0;entryDy=0;entryPerimeter=0;" edge="1" parent="1" source="wdwd_AqZ2ZVo4Lx0RvvQ-51" target="wdwd_AqZ2ZVo4Lx0RvvQ-98">
          <mxGeometry relative="1" as="geometry" />
        </mxCell>
      </root>
    </mxGraphModel>
  </diagram>
</mxfile>
